<svg width="298" height="128" viewBox="0 0 298 128" fill="none" xmlns="http://www.w3.org/2000/svg">
<path d="M2.95312 123H1.56108L6.85227 108.455H8.27273L13.5639 123H12.1719L7.61222 110.18H7.51278L2.95312 123ZM3.95455 117.425H11.1705V118.618H3.95455V117.425ZM28.7486 114.484L27.5909 114.811C27.4773 114.484 27.3163 114.188 27.108 113.923C26.8996 113.658 26.6274 113.447 26.2912 113.291C25.9598 113.135 25.5478 113.057 25.0554 113.057C24.3168 113.057 23.7107 113.232 23.2372 113.582C22.7637 113.933 22.527 114.385 22.527 114.939C22.527 115.408 22.688 115.789 23.0099 116.082C23.3366 116.371 23.8385 116.601 24.5156 116.771L26.1634 117.176C27.0772 117.399 27.7614 117.751 28.2159 118.234C28.6752 118.717 28.9048 119.323 28.9048 120.053C28.9048 120.668 28.7344 121.215 28.3935 121.693C28.0526 122.171 27.5767 122.548 26.9659 122.822C26.3598 123.092 25.6567 123.227 24.8565 123.227C23.7912 123.227 22.9129 122.988 22.2216 122.51C21.5303 122.027 21.0876 121.331 20.8935 120.422L22.108 120.124C22.2642 120.772 22.5696 121.262 23.0241 121.594C23.4834 121.925 24.0871 122.091 24.8352 122.091C25.6733 122.091 26.3433 121.904 26.8452 121.53C27.3471 121.151 27.598 120.678 27.598 120.109C27.598 119.669 27.4512 119.3 27.1577 119.001C26.8641 118.698 26.419 118.476 25.8224 118.334L24.0398 117.908C23.0928 117.68 22.392 117.321 21.9375 116.828C21.483 116.336 21.2557 115.725 21.2557 114.996C21.2557 114.394 21.419 113.866 21.7457 113.412C22.0724 112.953 22.5223 112.593 23.0952 112.332C23.6681 112.072 24.3215 111.942 25.0554 111.942C26.0545 111.942 26.8523 112.169 27.4489 112.624C28.0502 113.073 28.4834 113.694 28.7486 114.484ZM38.6048 118.831V112.091H39.869V123H38.6048V121.189H38.5053C38.2496 121.748 37.8448 122.214 37.2908 122.588C36.7369 122.957 36.0598 123.142 35.2596 123.142C34.5636 123.142 33.9457 122.991 33.4059 122.688C32.8661 122.38 32.4424 121.93 32.1346 121.338C31.8268 120.746 31.6729 120.019 31.6729 119.158V112.091H32.9371V119.08C32.9371 119.932 33.1881 120.618 33.69 121.139C34.1919 121.655 34.8358 121.913 35.6218 121.913C36.1142 121.913 36.5877 121.795 37.0423 121.558C37.4968 121.321 37.8709 120.976 38.1644 120.521C38.458 120.062 38.6048 119.499 38.6048 118.831ZM46.2628 123.249C45.6046 123.249 45.0033 123.121 44.4588 122.865C43.9143 122.605 43.4811 122.231 43.1591 121.743C42.8371 121.25 42.6761 120.654 42.6761 119.953C42.6761 119.413 42.7779 118.959 42.9815 118.589C43.1851 118.22 43.474 117.917 43.848 117.68C44.2221 117.444 44.6648 117.257 45.1761 117.119C45.6875 116.982 46.2509 116.875 46.8665 116.8C47.4773 116.724 47.9934 116.658 48.4148 116.601C48.8409 116.544 49.1652 116.454 49.3878 116.331C49.6103 116.208 49.7216 116.009 49.7216 115.734V115.479C49.7216 114.735 49.4991 114.151 49.054 113.724C48.6136 113.294 47.9792 113.078 47.1506 113.078C46.3646 113.078 45.723 113.251 45.2259 113.597C44.7334 113.942 44.3878 114.349 44.1889 114.818L42.9886 114.385C43.2348 113.788 43.5758 113.312 44.0114 112.957C44.447 112.598 44.9347 112.339 45.4744 112.183C46.0142 112.022 46.5611 111.942 47.1151 111.942C47.5317 111.942 47.965 111.996 48.4148 112.105C48.8693 112.214 49.2907 112.403 49.679 112.673C50.0672 112.938 50.3821 113.31 50.6236 113.788C50.8651 114.262 50.9858 114.863 50.9858 115.592V123H49.7216V121.274H49.6435C49.492 121.596 49.267 121.909 48.9688 122.212C48.6705 122.515 48.2964 122.763 47.8466 122.957C47.3968 123.152 46.8688 123.249 46.2628 123.249ZM46.4332 122.091C47.1056 122.091 47.688 121.942 48.1804 121.643C48.6728 121.345 49.0516 120.95 49.3168 120.457C49.5866 119.96 49.7216 119.413 49.7216 118.817V117.24C49.6269 117.33 49.4683 117.411 49.2457 117.482C49.0279 117.553 48.7746 117.616 48.4858 117.673C48.2017 117.725 47.9176 117.77 47.6335 117.808C47.3494 117.846 47.0938 117.879 46.8665 117.908C46.2509 117.983 45.7254 118.102 45.2898 118.263C44.8542 118.424 44.5204 118.646 44.2884 118.93C44.0563 119.21 43.9403 119.57 43.9403 120.01C43.9403 120.673 44.1771 121.187 44.6506 121.551C45.1241 121.911 45.7183 122.091 46.4332 122.091ZM61.2379 108.455V123H59.9737V108.455H61.2379ZM68.8232 123.227C67.8809 123.227 67.0476 122.988 66.3232 122.51C65.6035 122.032 65.04 121.371 64.6328 120.528C64.2256 119.681 64.022 118.703 64.022 117.595C64.022 116.478 64.2256 115.495 64.6328 114.648C65.04 113.795 65.6035 113.133 66.3232 112.659C67.0476 112.181 67.8809 111.942 68.8232 111.942C69.7654 111.942 70.5964 112.181 71.3161 112.659C72.0357 113.137 72.5992 113.8 73.0064 114.648C73.4183 115.495 73.6243 116.478 73.6243 117.595C73.6243 118.703 73.4207 119.681 73.0135 120.528C72.6063 121.371 72.0405 122.032 71.3161 122.51C70.5964 122.988 69.7654 123.227 68.8232 123.227ZM68.8232 122.07C69.5807 122.07 70.2223 121.866 70.7479 121.459C71.2734 121.052 71.6712 120.509 71.9411 119.832C72.2157 119.155 72.353 118.41 72.353 117.595C72.353 116.781 72.2157 116.033 71.9411 115.351C71.6712 114.669 71.2734 114.122 70.7479 113.71C70.2223 113.298 69.5807 113.092 68.8232 113.092C68.0703 113.092 67.4287 113.298 66.8984 113.71C66.3729 114.122 65.9728 114.669 65.6982 115.351C65.4283 116.033 65.2933 116.781 65.2933 117.595C65.2933 118.41 65.4283 119.155 65.6982 119.832C65.9728 120.509 66.3729 121.052 66.8984 121.459C67.424 121.866 68.0656 122.07 68.8232 122.07ZM76.4137 112.091H77.685V124.058C77.685 124.679 77.569 125.214 77.337 125.663C77.1097 126.118 76.7783 126.468 76.3427 126.714C75.9071 126.965 75.3815 127.091 74.766 127.091C74.7186 127.091 74.6713 127.091 74.6239 127.091C74.5766 127.091 74.5245 127.089 74.4677 127.084L74.4819 125.898C74.5292 125.898 74.5742 125.898 74.6168 125.898C74.6594 125.898 74.7044 125.898 74.7518 125.898C75.2726 125.898 75.6798 125.737 75.9734 125.415C76.2669 125.093 76.4137 124.641 76.4137 124.058V112.091ZM77.0387 110.216C76.783 110.216 76.5605 110.128 76.3711 109.953C76.1864 109.773 76.0941 109.558 76.0941 109.307C76.0941 109.056 76.1864 108.843 76.3711 108.668C76.5605 108.488 76.783 108.398 77.0387 108.398C77.2991 108.398 77.5217 108.488 77.7063 108.668C77.8957 108.843 77.9904 109.056 77.9904 109.307C77.9904 109.558 77.8957 109.773 77.7063 109.953C77.5217 110.128 77.2991 110.216 77.0387 110.216ZM84.0753 123.249C83.4171 123.249 82.8158 123.121 82.2713 122.865C81.7268 122.605 81.2936 122.231 80.9716 121.743C80.6496 121.25 80.4886 120.654 80.4886 119.953C80.4886 119.413 80.5904 118.959 80.794 118.589C80.9976 118.22 81.2865 117.917 81.6605 117.68C82.0346 117.444 82.4773 117.257 82.9886 117.119C83.5 116.982 84.0634 116.875 84.679 116.8C85.2898 116.724 85.8059 116.658 86.2273 116.601C86.6534 116.544 86.9777 116.454 87.2003 116.331C87.4228 116.208 87.5341 116.009 87.5341 115.734V115.479C87.5341 114.735 87.3116 114.151 86.8665 113.724C86.4261 113.294 85.7917 113.078 84.9631 113.078C84.1771 113.078 83.5355 113.251 83.0384 113.597C82.5459 113.942 82.2003 114.349 82.0014 114.818L80.8011 114.385C81.0473 113.788 81.3883 113.312 81.8239 112.957C82.2595 112.598 82.7472 112.339 83.2869 112.183C83.8267 112.022 84.3736 111.942 84.9276 111.942C85.3442 111.942 85.7775 111.996 86.2273 112.105C86.6818 112.214 87.1032 112.403 87.4915 112.673C87.8797 112.938 88.1946 113.31 88.4361 113.788C88.6776 114.262 88.7983 114.863 88.7983 115.592V123H87.5341V121.274H87.456C87.3045 121.596 87.0795 121.909 86.7812 122.212C86.483 122.515 86.1089 122.763 85.6591 122.957C85.2093 123.152 84.6813 123.249 84.0753 123.249ZM84.2457 122.091C84.9181 122.091 85.5005 121.942 85.9929 121.643C86.4853 121.345 86.8641 120.95 87.1293 120.457C87.3991 119.96 87.5341 119.413 87.5341 118.817V117.24C87.4394 117.33 87.2808 117.411 87.0582 117.482C86.8404 117.553 86.5871 117.616 86.2983 117.673C86.0142 117.725 85.7301 117.77 85.446 117.808C85.1619 117.846 84.9062 117.879 84.679 117.908C84.0634 117.983 83.5379 118.102 83.1023 118.263C82.6667 118.424 82.3329 118.646 82.1009 118.93C81.8688 119.21 81.7528 119.57 81.7528 120.01C81.7528 120.673 81.9896 121.187 82.4631 121.551C82.9366 121.911 83.5308 122.091 84.2457 122.091ZM101.714 123.227C100.819 123.227 100.035 122.991 99.3629 122.517C98.6906 122.044 98.165 121.383 97.7862 120.536C97.4122 119.688 97.2251 118.701 97.2251 117.574C97.2251 116.452 97.4122 115.469 97.7862 114.626C98.165 113.779 98.6929 113.121 99.37 112.652C100.047 112.179 100.835 111.942 101.735 111.942C102.398 111.942 102.95 112.06 103.39 112.297C103.83 112.529 104.183 112.818 104.448 113.163C104.713 113.509 104.919 113.845 105.066 114.172H105.18V108.455H106.451V123H105.215V120.976H105.066C104.919 121.307 104.711 121.648 104.441 121.999C104.171 122.344 103.814 122.635 103.369 122.872C102.928 123.109 102.377 123.227 101.714 123.227ZM101.863 122.07C102.568 122.07 103.17 121.878 103.667 121.494C104.164 121.106 104.543 120.573 104.803 119.896C105.068 119.214 105.201 118.433 105.201 117.553C105.201 116.681 105.071 115.912 104.81 115.244C104.55 114.572 104.171 114.046 103.674 113.668C103.177 113.284 102.573 113.092 101.863 113.092C101.134 113.092 100.518 113.291 100.016 113.689C99.5192 114.082 99.1404 114.615 98.88 115.287C98.6243 115.959 98.4964 116.714 98.4964 117.553C98.4964 118.4 98.6267 119.165 98.8871 119.847C99.1475 120.528 99.5263 121.071 100.023 121.473C100.525 121.871 101.138 122.07 101.863 122.07ZM114.462 123.227C113.444 123.227 112.564 122.991 111.82 122.517C111.077 122.039 110.502 121.378 110.094 120.536C109.692 119.688 109.491 118.713 109.491 117.609C109.491 116.511 109.692 115.536 110.094 114.683C110.502 113.826 111.063 113.156 111.778 112.673C112.497 112.186 113.328 111.942 114.271 111.942C114.862 111.942 115.433 112.051 115.982 112.268C116.531 112.482 117.024 112.811 117.46 113.256C117.9 113.696 118.248 114.252 118.504 114.925C118.759 115.592 118.887 116.383 118.887 117.297V117.922H110.364V116.807H117.594C117.594 116.106 117.452 115.476 117.168 114.918C116.889 114.354 116.498 113.909 115.996 113.582C115.499 113.256 114.924 113.092 114.271 113.092C113.579 113.092 112.971 113.277 112.445 113.646C111.92 114.016 111.508 114.503 111.21 115.109C110.916 115.715 110.767 116.378 110.762 117.098V117.766C110.762 118.632 110.911 119.39 111.21 120.038C111.513 120.682 111.941 121.182 112.495 121.537C113.049 121.892 113.705 122.07 114.462 122.07C114.978 122.07 115.431 121.989 115.819 121.828C116.212 121.667 116.541 121.452 116.806 121.182C117.076 120.907 117.28 120.607 117.417 120.28L118.617 120.67C118.451 121.13 118.179 121.554 117.8 121.942C117.426 122.33 116.958 122.643 116.394 122.879C115.835 123.111 115.192 123.227 114.462 123.227ZM127.298 123V112.091H128.527V113.767H128.64C128.858 113.204 129.22 112.761 129.727 112.439C130.238 112.112 130.851 111.949 131.566 111.949C132.319 111.949 132.937 112.126 133.42 112.482C133.908 112.832 134.272 113.315 134.514 113.93H134.606C134.852 113.324 135.252 112.844 135.806 112.489C136.365 112.129 137.042 111.949 137.838 111.949C138.851 111.949 139.651 112.268 140.238 112.908C140.825 113.542 141.119 114.47 141.119 115.692V123H139.855V115.692C139.855 114.83 139.635 114.184 139.194 113.753C138.754 113.322 138.174 113.107 137.454 113.107C136.621 113.107 135.979 113.362 135.529 113.874C135.08 114.385 134.855 115.034 134.855 115.82V123H133.562V115.578C133.562 114.839 133.356 114.243 132.944 113.788C132.532 113.334 131.952 113.107 131.204 113.107C130.702 113.107 130.25 113.23 129.848 113.476C129.45 113.722 129.135 114.065 128.903 114.506C128.676 114.941 128.562 115.443 128.562 116.011V123H127.298ZM148.706 123.227C147.764 123.227 146.93 122.988 146.206 122.51C145.486 122.032 144.923 121.371 144.516 120.528C144.108 119.681 143.905 118.703 143.905 117.595C143.905 116.478 144.108 115.495 144.516 114.648C144.923 113.795 145.486 113.133 146.206 112.659C146.93 112.181 147.764 111.942 148.706 111.942C149.648 111.942 150.479 112.181 151.199 112.659C151.919 113.137 152.482 113.8 152.889 114.648C153.301 115.495 153.507 116.478 153.507 117.595C153.507 118.703 153.304 119.681 152.896 120.528C152.489 121.371 151.923 122.032 151.199 122.51C150.479 122.988 149.648 123.227 148.706 123.227ZM148.706 122.07C149.464 122.07 150.105 121.866 150.631 121.459C151.156 121.052 151.554 120.509 151.824 119.832C152.098 119.155 152.236 118.41 152.236 117.595C152.236 116.781 152.098 116.033 151.824 115.351C151.554 114.669 151.156 114.122 150.631 113.71C150.105 113.298 149.464 113.092 148.706 113.092C147.953 113.092 147.312 113.298 146.781 113.71C146.256 114.122 145.856 114.669 145.581 115.351C145.311 116.033 145.176 116.781 145.176 117.595C145.176 118.41 145.311 119.155 145.581 119.832C145.856 120.509 146.256 121.052 146.781 121.459C147.307 121.866 147.948 122.07 148.706 122.07ZM148.116 110.578L149.935 107.354H151.433L149.253 110.578H148.116ZM164.336 112.091L160.352 123H159.002L155.018 112.091H156.389L159.627 121.331H159.727L162.966 112.091H164.336ZM170.83 123.227C169.812 123.227 168.931 122.991 168.188 122.517C167.444 122.039 166.869 121.378 166.462 120.536C166.059 119.688 165.858 118.713 165.858 117.609C165.858 116.511 166.059 115.536 166.462 114.683C166.869 113.826 167.43 113.156 168.145 112.673C168.865 112.186 169.696 111.942 170.638 111.942C171.23 111.942 171.8 112.051 172.349 112.268C172.899 112.482 173.391 112.811 173.827 113.256C174.267 113.696 174.615 114.252 174.871 114.925C175.126 115.592 175.254 116.383 175.254 117.297V117.922H166.732V116.807H173.962C173.962 116.106 173.82 115.476 173.536 114.918C173.256 114.354 172.866 113.909 172.364 113.582C171.866 113.256 171.291 113.092 170.638 113.092C169.946 113.092 169.338 113.277 168.812 113.646C168.287 114.016 167.875 114.503 167.577 115.109C167.283 115.715 167.134 116.378 167.129 117.098V117.766C167.129 118.632 167.278 119.39 167.577 120.038C167.88 120.682 168.308 121.182 168.862 121.537C169.416 121.892 170.072 122.07 170.83 122.07C171.346 122.07 171.798 121.989 172.186 121.828C172.579 121.667 172.908 121.452 173.173 121.182C173.443 120.907 173.647 120.607 173.784 120.28L174.984 120.67C174.819 121.13 174.546 121.554 174.168 121.942C173.794 122.33 173.325 122.643 172.761 122.879C172.203 123.111 171.559 123.227 170.83 123.227ZM178.054 123V112.091H179.326V123H178.054ZM178.701 110.216C178.44 110.216 178.218 110.128 178.033 109.953C177.848 109.773 177.756 109.558 177.756 109.307C177.756 109.056 177.848 108.843 178.033 108.668C178.218 108.488 178.44 108.398 178.701 108.398C178.961 108.398 179.184 108.488 179.368 108.668C179.553 108.843 179.645 109.056 179.645 109.307C179.645 109.558 179.553 109.773 179.368 109.953C179.184 110.128 178.961 110.216 178.701 110.216ZM189.999 114.484L188.841 114.811C188.727 114.484 188.566 114.188 188.358 113.923C188.15 113.658 187.877 113.447 187.541 113.291C187.21 113.135 186.798 113.057 186.305 113.057C185.567 113.057 184.961 113.232 184.487 113.582C184.014 113.933 183.777 114.385 183.777 114.939C183.777 115.408 183.938 115.789 184.26 116.082C184.587 116.371 185.089 116.601 185.766 116.771L187.413 117.176C188.327 117.399 189.011 117.751 189.466 118.234C189.925 118.717 190.155 119.323 190.155 120.053C190.155 120.668 189.984 121.215 189.643 121.693C189.303 122.171 188.827 122.548 188.216 122.822C187.61 123.092 186.907 123.227 186.107 123.227C185.041 123.227 184.163 122.988 183.472 122.51C182.78 122.027 182.338 121.331 182.143 120.422L183.358 120.124C183.514 120.772 183.82 121.262 184.274 121.594C184.733 121.925 185.337 122.091 186.085 122.091C186.923 122.091 187.593 121.904 188.095 121.53C188.597 121.151 188.848 120.678 188.848 120.109C188.848 119.669 188.701 119.3 188.408 119.001C188.114 118.698 187.669 118.476 187.072 118.334L185.29 117.908C184.343 117.68 183.642 117.321 183.188 116.828C182.733 116.336 182.506 115.725 182.506 114.996C182.506 114.394 182.669 113.866 182.996 113.412C183.322 112.953 183.772 112.593 184.345 112.332C184.918 112.072 185.571 111.942 186.305 111.942C187.304 111.942 188.102 112.169 188.699 112.624C189.3 113.073 189.733 113.694 189.999 114.484ZM198.548 127.091V112.091H199.777V114.172H199.926C200.077 113.845 200.286 113.511 200.551 113.17C200.816 112.825 201.166 112.534 201.602 112.297C202.042 112.06 202.596 111.942 203.264 111.942C204.163 111.942 204.949 112.179 205.622 112.652C206.299 113.121 206.824 113.779 207.199 114.626C207.577 115.469 207.767 116.452 207.767 117.574C207.767 118.701 207.577 119.688 207.199 120.536C206.824 121.383 206.299 122.044 205.622 122.517C204.949 122.991 204.168 123.227 203.278 123.227C202.62 123.227 202.068 123.109 201.623 122.872C201.183 122.635 200.825 122.344 200.551 121.999C200.281 121.648 200.073 121.307 199.926 120.976H199.812V127.091H198.548ZM199.798 117.553C199.798 118.433 199.928 119.214 200.189 119.896C200.454 120.573 200.833 121.106 201.325 121.494C201.822 121.878 202.423 122.07 203.129 122.07C203.853 122.07 204.464 121.871 204.961 121.473C205.463 121.071 205.844 120.528 206.105 119.847C206.37 119.165 206.502 118.4 206.502 117.553C206.502 116.714 206.372 115.959 206.112 115.287C205.856 114.615 205.477 114.082 204.975 113.689C204.474 113.291 203.858 113.092 203.129 113.092C202.419 113.092 201.815 113.284 201.318 113.668C200.821 114.046 200.442 114.572 200.181 115.244C199.926 115.912 199.798 116.681 199.798 117.553ZM211.804 108.455V123H210.54V108.455H211.804ZM218.196 123.249C217.538 123.249 216.937 123.121 216.392 122.865C215.848 122.605 215.415 122.231 215.093 121.743C214.771 121.25 214.61 120.654 214.61 119.953C214.61 119.413 214.712 118.959 214.915 118.589C215.119 118.22 215.408 117.917 215.782 117.68C216.156 117.444 216.598 117.257 217.11 117.119C217.621 116.982 218.185 116.875 218.8 116.8C219.411 116.724 219.927 116.658 220.348 116.601C220.775 116.544 221.099 116.454 221.321 116.331C221.544 116.208 221.655 116.009 221.655 115.734V115.479C221.655 114.735 221.433 114.151 220.988 113.724C220.547 113.294 219.913 113.078 219.084 113.078C218.298 113.078 217.657 113.251 217.159 113.597C216.667 113.942 216.321 114.349 216.123 114.818L214.922 114.385C215.168 113.788 215.509 113.312 215.945 112.957C216.381 112.598 216.868 112.339 217.408 112.183C217.948 112.022 218.495 111.942 219.049 111.942C219.465 111.942 219.899 111.996 220.348 112.105C220.803 112.214 221.224 112.403 221.613 112.673C222.001 112.938 222.316 113.31 222.557 113.788C222.799 114.262 222.919 114.863 222.919 115.592V123H221.655V121.274H221.577C221.426 121.596 221.201 121.909 220.902 122.212C220.604 122.515 220.23 122.763 219.78 122.957C219.33 123.152 218.802 123.249 218.196 123.249ZM218.367 122.091C219.039 122.091 219.622 121.942 220.114 121.643C220.606 121.345 220.985 120.95 221.25 120.457C221.52 119.96 221.655 119.413 221.655 118.817V117.24C221.56 117.33 221.402 117.411 221.179 117.482C220.962 117.553 220.708 117.616 220.419 117.673C220.135 117.725 219.851 117.77 219.567 117.808C219.283 117.846 219.027 117.879 218.8 117.908C218.185 117.983 217.659 118.102 217.223 118.263C216.788 118.424 216.454 118.646 216.222 118.93C215.99 119.21 215.874 119.57 215.874 120.01C215.874 120.673 216.111 121.187 216.584 121.551C217.058 121.911 217.652 122.091 218.367 122.091ZM227.547 116.182V123H226.282V112.091H227.511V113.803H227.625C227.88 113.244 228.278 112.796 228.818 112.46C229.362 112.119 230.035 111.949 230.835 111.949C231.569 111.949 232.213 112.103 232.767 112.411C233.325 112.714 233.759 113.161 234.066 113.753C234.379 114.345 234.535 115.071 234.535 115.933V123H233.271V116.011C233.271 115.116 233.02 114.409 232.518 113.888C232.021 113.367 231.353 113.107 230.515 113.107C229.942 113.107 229.433 113.23 228.988 113.476C228.543 113.722 228.19 114.077 227.93 114.541C227.674 115 227.547 115.547 227.547 116.182ZM242.275 123.227C241.257 123.227 240.376 122.991 239.633 122.517C238.889 122.039 238.314 121.378 237.907 120.536C237.504 119.688 237.303 118.713 237.303 117.609C237.303 116.511 237.504 115.536 237.907 114.683C238.314 113.826 238.875 113.156 239.59 112.673C240.31 112.186 241.141 111.942 242.083 111.942C242.675 111.942 243.246 112.051 243.795 112.268C244.344 112.482 244.836 112.811 245.272 113.256C245.712 113.696 246.06 114.252 246.316 114.925C246.572 115.592 246.7 116.383 246.7 117.297V117.922H238.177V116.807H245.407C245.407 116.106 245.265 115.476 244.981 114.918C244.701 114.354 244.311 113.909 243.809 113.582C243.312 113.256 242.737 113.092 242.083 113.092C241.392 113.092 240.783 113.277 240.258 113.646C239.732 114.016 239.32 114.503 239.022 115.109C238.728 115.715 238.579 116.378 238.575 117.098V117.766C238.575 118.632 238.724 119.39 239.022 120.038C239.325 120.682 239.754 121.182 240.308 121.537C240.862 121.892 241.517 122.07 242.275 122.07C242.791 122.07 243.243 121.989 243.631 121.828C244.024 121.667 244.353 121.452 244.619 121.182C244.888 120.907 245.092 120.607 245.229 120.28L246.43 120.67C246.264 121.13 245.992 121.554 245.613 121.942C245.239 122.33 244.77 122.643 244.207 122.879C243.648 123.111 243.004 123.227 242.275 123.227ZM249.5 112.091H250.771V124.058C250.771 124.679 250.655 125.214 250.423 125.663C250.196 126.118 249.864 126.468 249.429 126.714C248.993 126.965 248.467 127.091 247.852 127.091C247.805 127.091 247.757 127.091 247.71 127.091C247.663 127.091 247.61 127.089 247.554 127.084L247.568 125.898C247.615 125.898 247.66 125.898 247.703 125.898C247.745 125.898 247.79 125.898 247.838 125.898C248.359 125.898 248.766 125.737 249.059 125.415C249.353 125.093 249.5 124.641 249.5 124.058V112.091ZM250.125 110.216C249.869 110.216 249.646 110.128 249.457 109.953C249.272 109.773 249.18 109.558 249.18 109.307C249.18 109.056 249.272 108.843 249.457 108.668C249.646 108.488 249.869 108.398 250.125 108.398C250.385 108.398 250.608 108.488 250.792 108.668C250.982 108.843 251.076 109.056 251.076 109.307C251.076 109.558 250.982 109.773 250.792 109.953C250.608 110.128 250.385 110.216 250.125 110.216ZM257.161 123.249C256.503 123.249 255.902 123.121 255.357 122.865C254.813 122.605 254.379 122.231 254.058 121.743C253.736 121.25 253.575 120.654 253.575 119.953C253.575 119.413 253.676 118.959 253.88 118.589C254.084 118.22 254.372 117.917 254.746 117.68C255.121 117.444 255.563 117.257 256.075 117.119C256.586 116.982 257.149 116.875 257.765 116.8C258.376 116.724 258.892 116.658 259.313 116.601C259.739 116.544 260.064 116.454 260.286 116.331C260.509 116.208 260.62 116.009 260.62 115.734V115.479C260.62 114.735 260.397 114.151 259.952 113.724C259.512 113.294 258.878 113.078 258.049 113.078C257.263 113.078 256.621 113.251 256.124 113.597C255.632 113.942 255.286 114.349 255.087 114.818L253.887 114.385C254.133 113.788 254.474 113.312 254.91 112.957C255.345 112.598 255.833 112.339 256.373 112.183C256.913 112.022 257.46 111.942 258.013 111.942C258.43 111.942 258.863 111.996 259.313 112.105C259.768 112.214 260.189 112.403 260.577 112.673C260.966 112.938 261.281 113.31 261.522 113.788C261.763 114.262 261.884 114.863 261.884 115.592V123H260.62V121.274H260.542C260.39 121.596 260.165 121.909 259.867 122.212C259.569 122.515 259.195 122.763 258.745 122.957C258.295 123.152 257.767 123.249 257.161 123.249ZM257.332 122.091C258.004 122.091 258.586 121.942 259.079 121.643C259.571 121.345 259.95 120.95 260.215 120.457C260.485 119.96 260.62 119.413 260.62 118.817V117.24C260.525 117.33 260.367 117.411 260.144 117.482C259.926 117.553 259.673 117.616 259.384 117.673C259.1 117.725 258.816 117.77 258.532 117.808C258.248 117.846 257.992 117.879 257.765 117.908C257.149 117.983 256.624 118.102 256.188 118.263C255.753 118.424 255.419 118.646 255.187 118.93C254.955 119.21 254.839 119.57 254.839 120.01C254.839 120.673 255.076 121.187 255.549 121.551C256.022 121.911 256.617 122.091 257.332 122.091ZM269.175 123.227C268.28 123.227 267.496 122.991 266.824 122.517C266.152 122.044 265.626 121.383 265.247 120.536C264.873 119.688 264.686 118.701 264.686 117.574C264.686 116.452 264.873 115.469 265.247 114.626C265.626 113.779 266.154 113.121 266.831 112.652C267.508 112.179 268.296 111.942 269.196 111.942C269.859 111.942 270.411 112.06 270.851 112.297C271.291 112.529 271.644 112.818 271.909 113.163C272.174 113.509 272.38 113.845 272.527 114.172H272.641V108.455H273.912V123H272.676V120.976H272.527C272.38 121.307 272.172 121.648 271.902 121.999C271.632 122.344 271.275 122.635 270.83 122.872C270.389 123.109 269.838 123.227 269.175 123.227ZM269.324 122.07C270.029 122.07 270.631 121.878 271.128 121.494C271.625 121.106 272.004 120.573 272.264 119.896C272.529 119.214 272.662 118.433 272.662 117.553C272.662 116.681 272.532 115.912 272.271 115.244C272.011 114.572 271.632 114.046 271.135 113.668C270.638 113.284 270.034 113.092 269.324 113.092C268.595 113.092 267.979 113.291 267.477 113.689C266.98 114.082 266.601 114.615 266.341 115.287C266.085 115.959 265.957 116.714 265.957 117.553C265.957 118.4 266.088 119.165 266.348 119.847C266.608 120.528 266.987 121.071 267.484 121.473C267.986 121.871 268.599 122.07 269.324 122.07ZM281.753 123.227C280.811 123.227 279.977 122.988 279.253 122.51C278.533 122.032 277.97 121.371 277.562 120.528C277.155 119.681 276.952 118.703 276.952 117.595C276.952 116.478 277.155 115.495 277.562 114.648C277.97 113.795 278.533 113.133 279.253 112.659C279.977 112.181 280.811 111.942 281.753 111.942C282.695 111.942 283.526 112.181 284.246 112.659C284.965 113.137 285.529 113.8 285.936 114.648C286.348 115.495 286.554 116.478 286.554 117.595C286.554 118.703 286.35 119.681 285.943 120.528C285.536 121.371 284.97 122.032 284.246 122.51C283.526 122.988 282.695 123.227 281.753 123.227ZM281.753 122.07C282.51 122.07 283.152 121.866 283.678 121.459C284.203 121.052 284.601 120.509 284.871 119.832C285.145 119.155 285.283 118.41 285.283 117.595C285.283 116.781 285.145 116.033 284.871 115.351C284.601 114.669 284.203 114.122 283.678 113.71C283.152 113.298 282.51 113.092 281.753 113.092C281 113.092 280.358 113.298 279.828 113.71C279.303 114.122 278.902 114.669 278.628 115.351C278.358 116.033 278.223 116.781 278.223 117.595C278.223 118.41 278.358 119.155 278.628 119.832C278.902 120.509 279.303 121.052 279.828 121.459C280.354 121.866 280.995 122.07 281.753 122.07ZM296.659 114.484L295.501 114.811C295.387 114.484 295.226 114.188 295.018 113.923C294.81 113.658 294.538 113.447 294.201 113.291C293.87 113.135 293.458 113.057 292.966 113.057C292.227 113.057 291.621 113.232 291.147 113.582C290.674 113.933 290.437 114.385 290.437 114.939C290.437 115.408 290.598 115.789 290.92 116.082C291.247 116.371 291.749 116.601 292.426 116.771L294.074 117.176C294.987 117.399 295.672 117.751 296.126 118.234C296.585 118.717 296.815 119.323 296.815 120.053C296.815 120.668 296.645 121.215 296.304 121.693C295.963 122.171 295.487 122.548 294.876 122.822C294.27 123.092 293.567 123.227 292.767 123.227C291.701 123.227 290.823 122.988 290.132 122.51C289.44 122.027 288.998 121.331 288.804 120.422L290.018 120.124C290.174 120.772 290.48 121.262 290.934 121.594C291.394 121.925 291.997 122.091 292.745 122.091C293.583 122.091 294.253 121.904 294.755 121.53C295.257 121.151 295.508 120.678 295.508 120.109C295.508 119.669 295.361 119.3 295.068 119.001C294.774 118.698 294.329 118.476 293.733 118.334L291.95 117.908C291.003 117.68 290.302 117.321 289.848 116.828C289.393 116.336 289.166 115.725 289.166 114.996C289.166 114.394 289.329 113.866 289.656 113.412C289.983 112.953 290.432 112.593 291.005 112.332C291.578 112.072 292.232 111.942 292.966 111.942C293.965 111.942 294.762 112.169 295.359 112.624C295.96 113.073 296.394 113.694 296.659 114.484Z" fill="white"/>
<path d="M0.712 67.784C0.818667 67.464 1.13867 66.7067 1.672 65.512C2.22667 64.3387 2.952 62.7813 3.848 60.84C4.744 58.8773 5.78933 56.5947 6.984 53.992C8.2 51.368 9.52267 48.4773 10.952 45.32C11.016 45.1707 11.08 44.9893 11.144 44.776C11.208 44.5627 11.24 44.3707 11.24 44.2C11.24 43.9653 11.176 43.784 11.048 43.656C10.92 43.5067 10.6533 43.432 10.248 43.432C9.352 43.432 8.616 43.72 8.04 44.296C7.48533 44.8507 7.06933 45.544 6.792 46.376C6.51467 47.208 6.376 48.0187 6.376 48.808C6.376 49.0213 6.376 49.2347 6.376 49.448C6.39733 49.6613 6.42933 49.9067 6.472 50.184C6.00267 50.184 5.61867 50.0347 5.32 49.736C5.02133 49.416 4.78667 49.0427 4.616 48.616C4.46667 48.168 4.392 47.752 4.392 47.368C4.392 46.664 4.584 45.992 4.968 45.352C5.37333 44.712 5.88533 44.136 6.504 43.624C7.144 43.112 7.848 42.7067 8.616 42.408C9.384 42.1093 10.1413 41.96 10.888 41.96C11.6347 41.96 12.2747 42.1733 12.808 42.6C13.3413 43.0267 13.7467 43.7947 14.024 44.904C14.3013 45.992 14.44 47.5707 14.44 49.64C14.44 51.0053 14.3867 52.4133 14.28 53.864C14.1947 55.2933 14.0987 56.6693 13.992 57.992C13.8853 59.2933 13.8213 60.4347 13.8 61.416C14.2053 60.136 14.7173 58.7813 15.336 57.352C15.976 55.9227 16.6587 54.504 17.384 53.096C18.1307 51.6667 18.856 50.3227 19.56 49.064C20.2853 47.8053 20.936 46.7173 21.512 45.8C22.088 44.8613 22.5253 44.168 22.824 43.72C23.1227 43.272 23.3787 42.9307 23.592 42.696C23.8267 42.4613 24.136 42.344 24.52 42.344C24.8187 42.344 25.2453 42.4507 25.8 42.664C25.6293 43.0693 25.416 43.6987 25.16 44.552C24.904 45.384 24.6267 46.3653 24.328 47.496C24.008 48.7973 23.6773 50.2373 23.336 51.816C23.016 53.3733 22.7173 54.952 22.44 56.552C22.184 58.152 21.9707 59.6773 21.8 61.128C21.6507 62.5573 21.576 63.7947 21.576 64.84C21.576 65.3733 21.5973 65.7893 21.64 66.088C21.6827 66.3867 21.7467 66.6427 21.832 66.856C21.9387 67.0907 22.0453 67.4 22.152 67.784C21.2987 67.784 20.648 67.6453 20.2 67.368C19.752 67.112 19.4533 66.696 19.304 66.12C19.1547 65.544 19.08 64.776 19.08 63.816C19.08 61.384 19.368 58.8133 19.944 56.104C20.52 53.3947 21.192 50.5893 21.96 47.688C21.3627 48.52 20.7333 49.5333 20.072 50.728C19.432 51.9013 18.792 53.16 18.152 54.504C17.512 55.8267 16.904 57.1493 16.328 58.472C15.752 59.7733 15.24 60.9893 14.792 62.12C14.3653 63.2293 14.0347 64.1573 13.8 64.904C13.6293 64.968 13.512 65.0107 13.448 65.032C13.384 65.0533 13.2987 65.064 13.192 65.064C12.488 65.064 12.04 64.648 11.848 63.816C11.656 62.984 11.56 61.832 11.56 60.36C11.56 59.528 11.5707 58.5893 11.592 57.544C11.6347 56.4987 11.6773 55.432 11.72 54.344C11.784 53.256 11.8267 52.1893 11.848 51.144C11.8907 50.0987 11.912 49.128 11.912 48.232C11.912 47.8907 11.9013 47.5707 11.88 47.272C11.88 46.952 11.88 46.6533 11.88 46.376C10.216 50.2373 8.81867 53.5333 7.688 56.264C6.55733 58.9733 5.59733 61.1813 4.808 62.888C4.01867 64.5733 3.304 65.8107 2.664 66.6C2.04533 67.3893 1.39467 67.784 0.712 67.784ZM27.5815 66.024C26.6428 66.024 25.9922 65.7147 25.6295 65.096C25.2668 64.4987 25.0855 63.816 25.0855 63.048C25.0855 62.3653 25.1922 61.672 25.4055 60.968C25.6188 60.264 25.9068 59.6027 26.2695 58.984C26.6322 58.3653 27.0375 57.864 27.4855 57.48C27.9335 57.096 28.3922 56.904 28.8615 56.904C28.9895 56.904 29.1388 56.936 29.3095 57C29.5015 57.0427 29.6402 57.1067 29.7255 57.192C29.4908 57.448 29.2348 57.8107 28.9575 58.28C28.7015 58.7493 28.4562 59.2613 28.2215 59.816C28.0082 60.3493 27.8268 60.8933 27.6775 61.448C27.5495 61.9813 27.4855 62.472 27.4855 62.92C27.4855 63.4107 27.5708 63.7947 27.7415 64.072C27.9122 64.3493 28.1895 64.488 28.5735 64.488C29.0002 64.488 29.5015 64.264 30.0775 63.816C30.6748 63.3467 31.2402 62.7813 31.7735 62.12C31.1122 61.544 30.6215 60.8827 30.3015 60.136C30.0028 59.368 29.8535 58.504 29.8535 57.544C29.8535 57.0107 29.9708 56.4453 30.2055 55.848C30.4402 55.2507 30.8028 54.7493 31.2935 54.344C31.7842 53.9387 32.4242 53.736 33.2135 53.736C34.1095 53.736 34.7282 53.992 35.0695 54.504C35.4322 54.9947 35.6135 55.592 35.6135 56.296C35.6135 57.0853 35.4002 57.9813 34.9735 58.984C34.5682 59.9653 34.0775 60.904 33.5015 61.8C33.8002 61.9707 34.1308 62.056 34.4935 62.056C34.8135 62.056 35.1975 61.9813 35.6455 61.832C36.0935 61.6827 36.5202 61.4373 36.9255 61.096C37.3522 60.7333 37.6935 60.264 37.9495 59.688L38.4615 60.072C38.0135 61.1173 37.3948 61.8853 36.6055 62.376C35.8375 62.8453 35.0908 63.08 34.3655 63.08C34.0882 63.08 33.8108 63.0587 33.5335 63.016C33.2562 62.952 33.0002 62.8667 32.7655 62.76C32.0402 63.656 31.2188 64.424 30.3015 65.064C29.4055 65.704 28.4988 66.024 27.5815 66.024ZM32.5095 61.16C33.0428 60.4133 33.4802 59.6133 33.8215 58.76C34.1842 57.8853 34.3655 57.0853 34.3655 56.36C34.3655 55.8267 34.2802 55.4427 34.1095 55.208C33.9602 54.952 33.7468 54.824 33.4695 54.824C33.0428 54.824 32.6162 55.1227 32.1895 55.72C31.7628 56.296 31.5495 57.032 31.5495 57.928C31.5495 58.44 31.6242 59.016 31.7735 59.656C31.9442 60.2747 32.1895 60.776 32.5095 61.16ZM39.5533 66.248C38.8066 66.248 38.2839 65.896 37.9853 65.192C37.7079 64.5093 37.5693 63.6133 37.5693 62.504C37.5693 62.3333 37.5799 61.9493 37.6013 61.352C37.6226 60.7333 37.6546 59.8053 37.6973 58.568C37.7399 57.9493 37.8146 57.5333 37.9213 57.32C38.0279 57.0853 38.3373 56.968 38.8493 56.968C39.3186 56.968 39.5959 57.064 39.6813 57.256C39.7879 57.4267 39.8413 57.7893 39.8413 58.344C39.8413 59.0053 39.8093 59.7413 39.7453 60.552C39.6813 61.3413 39.6493 62.0987 39.6493 62.824C39.6493 63.464 39.6813 63.944 39.7453 64.264C39.8306 64.5627 40.0013 64.712 40.2573 64.712C40.6413 64.712 41.0573 64.4987 41.5052 64.072C41.9746 63.6453 42.4439 63.1013 42.9133 62.44C43.3826 61.7573 43.8306 61.032 44.2573 60.264C44.6839 59.4747 45.0573 58.728 45.3773 58.024C45.4199 56.5733 45.5799 55.6027 45.8573 55.112C46.1559 54.6213 46.5293 54.376 46.9773 54.376C47.4679 54.376 47.8093 54.536 48.0013 54.856C48.1933 55.176 48.2893 55.464 48.2893 55.72C48.2893 56.0187 48.1933 56.3067 48.0013 56.584C47.8306 56.8613 47.6599 57.2347 47.4893 57.704C47.3186 58.1733 47.2333 58.8667 47.2333 59.784C47.2333 60.104 47.2546 60.4453 47.2973 60.808C47.3613 61.1707 47.4893 61.48 47.6813 61.736C47.8946 61.9707 48.2146 62.088 48.6413 62.088C49.0679 62.088 49.4839 61.9173 49.8893 61.576C50.2946 61.2133 50.7106 60.5947 51.1373 59.72L51.5213 60.04C51.0306 61.1707 50.4866 61.96 49.8893 62.408C49.3133 62.8347 48.7479 63.048 48.1933 63.048C47.4893 63.048 46.9133 62.7707 46.4653 62.216C46.0173 61.6613 45.6973 60.9253 45.5052 60.008C44.9933 61.0107 44.3959 61.992 43.7133 62.952C43.0519 63.8907 42.3586 64.6693 41.6333 65.288C40.9293 65.928 40.2359 66.248 39.5533 66.248ZM53.991 66.408C52.647 66.408 51.623 66.0453 50.919 65.32C50.215 64.5947 49.863 63.688 49.863 62.6C49.863 61.64 50.0977 60.6373 50.567 59.592C51.0577 58.5253 51.7083 57.5333 52.519 56.616C53.3297 55.6773 54.215 54.92 55.175 54.344C56.1563 53.7467 57.127 53.448 58.087 53.448C58.6203 53.448 59.1217 53.5867 59.591 53.864C60.0817 54.1413 60.327 54.696 60.327 55.528C60.327 56.3387 60.0817 57.1067 59.591 57.832C59.1217 58.536 58.4923 59.1653 57.703 59.72C56.935 60.2747 56.071 60.7333 55.111 61.096C54.1723 61.4373 53.2337 61.6507 52.295 61.736C52.2737 61.864 52.2523 61.992 52.231 62.12C52.2097 62.248 52.199 62.4187 52.199 62.632C52.199 62.8027 52.2203 63.0373 52.263 63.336C52.327 63.6133 52.4337 63.9013 52.583 64.2C52.7537 64.4773 53.0097 64.712 53.351 64.904C53.6923 65.096 54.1403 65.192 54.695 65.192C55.591 65.192 56.487 64.936 57.383 64.424C58.3003 63.912 59.1537 63.24 59.943 62.408C60.7323 61.5547 61.3937 60.616 61.927 59.592L62.471 60.04C61.895 61.32 61.159 62.44 60.263 63.4C59.367 64.3387 58.375 65.0747 57.287 65.608C56.2203 66.1413 55.1217 66.408 53.991 66.408ZM52.583 60.744C53.1377 60.6373 53.767 60.424 54.471 60.104C55.175 59.7627 55.847 59.3467 56.487 58.856C57.127 58.344 57.6497 57.7893 58.055 57.192C58.4817 56.5947 58.695 55.9867 58.695 55.368C58.695 55.1333 58.6523 54.9627 58.567 54.856C58.4817 54.7493 58.3323 54.696 58.119 54.696C57.607 54.696 57.0737 54.888 56.519 55.272C55.9857 55.6347 55.4523 56.1147 54.919 56.712C54.407 57.288 53.9483 57.9387 53.543 58.664C53.1377 59.368 52.8177 60.0613 52.583 60.744ZM63.6515 65.928C62.7555 65.928 62.0835 65.6507 61.6355 65.096C61.1875 64.5627 60.9635 63.9013 60.9635 63.112C60.9635 62.6213 61.0488 62.0027 61.2195 61.256C61.3902 60.5093 61.6248 59.7307 61.9235 58.92C62.2435 58.088 62.6062 57.3093 63.0115 56.584C63.4168 55.8587 63.8435 55.272 64.2915 54.824C64.7608 54.3547 65.2195 54.12 65.6675 54.12C65.9022 54.12 66.1048 54.1947 66.2755 54.344C66.4675 54.4933 66.5635 54.7067 66.5635 54.984C66.5635 55.2613 66.3928 55.6773 66.0515 56.232C65.7315 56.7867 65.3475 57.4373 64.8995 58.184C64.4515 58.9093 64.0568 59.6667 63.7155 60.456C63.3955 61.2453 63.2355 62.0027 63.2355 62.728C63.2355 63.432 63.3635 63.9013 63.6195 64.136C63.8755 64.3707 64.2488 64.488 64.7395 64.488C65.4648 64.488 66.2435 64.1253 67.0755 63.4C67.9288 62.6747 68.8142 61.4053 69.7315 59.592L70.1475 60.04C69.4435 61.9173 68.5048 63.368 67.3315 64.392C66.1795 65.416 64.9528 65.928 63.6515 65.928ZM67.4595 51.4C67.0755 51.4 66.7235 51.304 66.4035 51.112C66.1048 50.92 65.9555 50.632 65.9555 50.248C65.9555 49.736 66.2222 49.3093 66.7555 48.968C67.3102 48.6053 67.8755 48.424 68.4515 48.424C68.8142 48.424 69.1128 48.5093 69.3475 48.68C69.5822 48.8507 69.6995 49.1387 69.6995 49.544C69.6995 49.992 69.4648 50.4187 68.9955 50.824C68.5262 51.208 68.0142 51.4 67.4595 51.4ZM72.5848 66.632C71.5394 66.632 70.6968 66.408 70.0568 65.96C69.4381 65.5333 69.0008 64.9893 68.7447 64.328C68.4674 63.6667 68.3287 62.9947 68.3287 62.312C68.3287 61.6933 68.4141 61.2133 68.5847 60.872C68.7554 60.5307 68.9688 60.2747 69.2248 60.104C69.4808 59.9333 69.7154 59.8053 69.9288 59.72C70.1634 59.6347 70.3234 59.5493 70.4088 59.464C70.9848 58.8453 71.5501 58.1627 72.1048 57.416C72.6594 56.6693 73.1394 55.8587 73.5448 54.984V54.632C73.5448 53.8 73.6834 53.2133 73.9608 52.872C74.2381 52.5307 74.5581 52.36 74.9208 52.36C75.1554 52.36 75.3261 52.424 75.4328 52.552C75.5394 52.6587 75.5928 52.7867 75.5928 52.936C75.5928 53.0427 75.5608 53.192 75.4968 53.384C75.4541 53.576 75.4328 53.832 75.4328 54.152C75.4328 54.8133 75.5821 55.56 75.8808 56.392C76.1794 57.2027 76.4781 58.0667 76.7768 58.984C77.0754 59.9013 77.2248 60.84 77.2248 61.8C77.2248 62.0773 77.2141 62.3333 77.1927 62.568C77.1714 62.7813 77.1288 62.9947 77.0648 63.208C77.7688 63.0587 78.4408 62.7067 79.0808 62.152C79.7208 61.576 80.3394 60.7227 80.9368 59.592L81.2888 59.88C80.8834 61.096 80.2861 62.056 79.4968 62.76C78.7288 63.4427 77.8434 63.8587 76.8408 64.008C76.4994 64.904 75.9448 65.5653 75.1768 65.992C74.4088 66.4187 73.5448 66.632 72.5848 66.632ZM72.4568 65.32C72.8194 65.32 73.1928 65.2133 73.5768 65C73.9608 64.808 74.2701 64.4667 74.5048 63.976C73.6088 63.784 72.8088 63.4427 72.1048 62.952C71.4221 62.44 70.8887 61.9173 70.5048 61.384C70.1634 61.448 69.9928 61.768 69.9928 62.344C69.9928 63.0693 70.1954 63.752 70.6008 64.392C71.0274 65.0107 71.6461 65.32 72.4568 65.32ZM74.7288 63.144C74.7714 62.9733 74.7928 62.7813 74.7928 62.568C74.8141 62.3547 74.8248 62.1627 74.8248 61.992C74.8034 61.0107 74.6754 60.0507 74.4408 59.112C74.2061 58.152 73.9821 57.192 73.7688 56.232C73.3421 56.9573 72.8621 57.704 72.3288 58.472C71.8168 59.2187 71.3368 59.8267 70.8888 60.296C71.2088 60.9147 71.6994 61.4907 72.3608 62.024C73.0434 62.5573 73.8328 62.9307 74.7288 63.144ZM91.8615 67.784C91.2428 67.784 90.6668 67.6133 90.1335 67.272C89.6215 66.952 89.3655 66.536 89.3655 66.024C89.3655 65.768 89.4082 65.48 89.4935 65.16C89.6002 64.84 89.6962 64.5413 89.7815 64.264C90.4428 62.216 91.0615 60.3067 91.6375 58.536C92.2348 56.744 92.8215 55.0267 93.3975 53.384C93.9948 51.72 94.6242 50.056 95.2855 48.392C95.9468 46.728 96.6828 44.9893 97.4935 43.176C96.6828 43.3253 95.9788 43.5387 95.3815 43.816C94.8055 44.0933 94.3255 44.3387 93.9415 44.552C93.5788 44.7653 93.3228 44.872 93.1735 44.872C93.0668 44.872 92.9175 44.808 92.7255 44.68C92.5335 44.5307 92.3628 44.3707 92.2135 44.2C92.0855 44.0293 92.0215 43.88 92.0215 43.752C92.5975 43.496 93.2802 43.2293 94.0695 42.952C94.8588 42.6747 95.7122 42.44 96.6295 42.248C97.5468 42.056 98.4642 41.96 99.3815 41.96C100.363 41.96 101.366 42.0987 102.39 42.376C103.414 42.632 104.352 43.0267 105.206 43.56C106.059 44.072 106.752 44.712 107.286 45.48C107.819 46.248 108.086 47.1547 108.086 48.2C108.086 49.3307 107.83 50.3013 107.318 51.112C106.806 51.9013 106.134 52.5733 105.302 53.128C104.47 53.6827 103.574 54.1307 102.614 54.472C101.654 54.8133 100.694 55.0693 99.7335 55.24C98.7735 55.4107 97.9095 55.528 97.1415 55.592C96.3948 55.656 95.8402 55.688 95.4775 55.688H95.2535C94.6348 57.8213 94.0375 59.944 93.4615 62.056C92.8855 64.168 92.3522 66.0773 91.8615 67.784ZM95.4775 54.856C96.6722 54.7707 97.8668 54.568 99.0615 54.248C100.256 53.928 101.344 53.48 102.326 52.904C103.307 52.328 104.096 51.6027 104.694 50.728C105.291 49.8533 105.59 48.84 105.59 47.688C105.59 46.5787 105.312 45.6827 104.758 45C104.203 44.3173 103.478 43.8053 102.582 43.464C101.707 43.1227 100.768 42.9413 99.7655 42.92C98.9975 44.4347 98.2508 46.2373 97.5255 48.328C96.8215 50.4187 96.1388 52.5947 95.4775 54.856ZM108.501 65.96C107.52 65.96 106.827 65.6293 106.421 64.968C106.037 64.3067 105.845 63.5173 105.845 62.6C105.845 61.5547 106.037 60.328 106.421 58.92C106.805 57.512 107.307 56.04 107.925 54.504C108.565 52.9467 109.259 51.432 110.005 49.96C110.773 48.4667 111.531 47.1227 112.277 45.928C113.045 44.712 113.749 43.752 114.389 43.048C115.051 42.3227 115.573 41.96 115.957 41.96C116.213 41.96 116.427 42.0987 116.597 42.376C116.789 42.6533 116.939 42.9947 117.045 43.4C117.152 43.784 117.205 44.136 117.205 44.456C117.205 45.032 117.056 45.7893 116.757 46.728C116.48 47.6453 116.075 48.6693 115.541 49.8C115.029 50.9093 114.411 52.0507 113.685 53.224C112.981 54.376 112.203 55.4853 111.349 56.552C110.496 57.5973 109.579 58.504 108.597 59.272C108.512 59.8053 108.427 60.3387 108.341 60.872C108.277 61.4053 108.245 61.896 108.245 62.344C108.245 63.1333 108.363 63.72 108.597 64.104C108.853 64.4667 109.195 64.648 109.621 64.648C110.176 64.648 110.731 64.392 111.285 63.88C111.861 63.368 112.405 62.728 112.917 61.96C113.429 61.1707 113.877 60.36 114.261 59.528L114.933 59.912C114.037 61.768 113.045 63.24 111.957 64.328C110.869 65.416 109.717 65.96 108.501 65.96ZM109.077 57.576C109.824 56.808 110.528 55.9547 111.189 55.016C111.851 54.0773 112.459 53.1173 113.013 52.136C113.589 51.1333 114.091 50.1733 114.517 49.256C114.944 48.3173 115.275 47.4853 115.509 46.76C115.744 46.0133 115.872 45.4267 115.893 45C115.893 44.9147 115.883 44.8613 115.861 44.84C115.84 44.7973 115.829 44.776 115.829 44.776C115.659 44.776 115.371 45.032 114.965 45.544C114.581 46.0347 114.123 46.7067 113.589 47.56C113.077 48.4133 112.544 49.3947 111.989 50.504C111.435 51.6133 110.901 52.776 110.389 53.992C109.877 55.208 109.44 56.4027 109.077 57.576ZM115.227 66.504C114.545 66.504 113.958 66.2693 113.467 65.8C112.955 65.352 112.699 64.6693 112.699 63.752C112.699 62.984 112.87 62.1627 113.211 61.288C113.553 60.4133 114.022 59.5493 114.619 58.696C115.217 57.8427 115.899 57.064 116.667 56.36C117.435 55.656 118.246 55.0907 119.099 54.664C119.974 54.2373 120.838 54.024 121.691 54.024C122.587 54.024 123.334 54.2587 123.931 54.728C124.55 55.176 124.859 55.7733 124.859 56.52C124.859 57.096 124.678 57.5013 124.315 57.736C123.953 57.9707 123.505 58.0453 122.971 57.96C123.014 57.7893 123.046 57.608 123.067 57.416C123.11 57.2027 123.131 57 123.131 56.808C123.131 56.36 123.035 55.9653 122.843 55.624C122.651 55.2827 122.278 55.112 121.723 55.112C121.126 55.112 120.518 55.3147 119.899 55.72C119.281 56.1253 118.683 56.6587 118.107 57.32C117.531 57.9813 117.019 58.7067 116.571 59.496C116.123 60.2853 115.771 61.064 115.515 61.832C115.259 62.6 115.131 63.2827 115.131 63.88C115.131 64.6053 115.398 64.968 115.931 64.968C116.422 64.968 116.955 64.7333 117.531 64.264C118.129 63.7947 118.726 63.1973 119.323 62.472C119.942 61.7467 120.529 61.0107 121.083 60.264C121.638 59.496 122.118 58.824 122.523 58.248C122.609 58.1413 122.683 58.088 122.747 58.088C122.854 58.1093 123.025 58.1627 123.259 58.248C123.494 58.312 123.707 58.408 123.899 58.536C124.091 58.664 124.187 58.8347 124.187 59.048C124.187 59.2613 124.091 59.5387 123.899 59.88C123.707 60.2 123.494 60.5627 123.259 60.968C123.025 61.3733 122.811 61.7787 122.619 62.184C122.427 62.5893 122.331 62.984 122.331 63.368C122.331 63.6453 122.406 63.9227 122.555 64.2C122.726 64.456 122.993 64.584 123.355 64.584C123.889 64.584 124.614 64.2 125.531 63.432C126.47 62.6427 127.419 61.3627 128.379 59.592L128.891 60.104C128.401 61.256 127.793 62.2693 127.067 63.144C126.363 64.0187 125.617 64.7013 124.827 65.192C124.038 65.704 123.249 65.96 122.459 65.96C121.606 65.96 120.977 65.6933 120.571 65.16C120.166 64.648 119.942 64.0827 119.899 63.464C119.899 63.4 119.899 63.336 119.899 63.272C119.921 63.1867 119.931 63.112 119.931 63.048C119.057 64.136 118.257 64.9787 117.531 65.576C116.806 66.1947 116.038 66.504 115.227 66.504ZM138.28 65.64C137.491 65.64 136.883 65.4373 136.456 65.032C136.051 64.6267 135.848 64.1147 135.848 63.496C135.848 63.048 135.923 62.5893 136.072 62.12C136.222 61.6293 136.371 61.1387 136.52 60.648C136.67 60.136 136.744 59.6453 136.744 59.176C136.744 58.664 136.627 58.312 136.392 58.12C136.158 57.928 135.88 57.832 135.56 57.832C134.92 57.832 134.259 58.0987 133.576 58.632C132.915 59.1653 132.264 59.8373 131.624 60.648C130.984 61.4373 130.387 62.2693 129.832 63.144C129.278 64.0187 128.798 64.7973 128.392 65.48C128.008 65.48 127.646 65.416 127.304 65.288C126.963 65.16 126.675 64.936 126.44 64.616C126.462 64.5093 126.59 64.1893 126.824 63.656C127.038 63.1013 127.283 62.44 127.56 61.672C127.838 60.8827 128.083 60.072 128.296 59.24C128.531 58.408 128.648 57.64 128.648 56.936C128.798 56.7867 129.022 56.6267 129.32 56.456C129.619 56.2853 129.928 56.2 130.248 56.2C130.931 56.2 131.272 56.5093 131.272 57.128C131.272 57.4053 131.208 57.8533 131.08 58.472C130.952 59.0693 130.782 59.7307 130.568 60.456C131.123 59.6667 131.742 58.9093 132.424 58.184C133.107 57.4373 133.822 56.8293 134.568 56.36C135.315 55.8907 136.072 55.656 136.84 55.656C137.715 55.656 138.355 55.9653 138.76 56.584C139.187 57.1813 139.4 57.8533 139.4 58.6C139.4 59.24 139.294 59.848 139.08 60.424C138.867 60.9787 138.654 61.512 138.44 62.024C138.248 62.5147 138.152 63.0053 138.152 63.496C138.152 63.8587 138.227 64.1253 138.376 64.296C138.547 64.4453 138.75 64.52 138.984 64.52C139.496 64.52 140.019 64.2747 140.552 63.784C141.107 63.272 141.63 62.6427 142.12 61.896C142.632 61.128 143.08 60.36 143.464 59.592L143.944 60.008C143.496 61.0533 142.995 62.0027 142.44 62.856C141.886 63.7093 141.267 64.392 140.584 64.904C139.902 65.3947 139.134 65.64 138.28 65.64ZM146.335 66.408C144.991 66.408 143.967 66.0453 143.263 65.32C142.559 64.5947 142.207 63.688 142.207 62.6C142.207 61.64 142.441 60.6373 142.911 59.592C143.401 58.5253 144.052 57.5333 144.863 56.616C145.673 55.6773 146.559 54.92 147.519 54.344C148.5 53.7467 149.471 53.448 150.431 53.448C150.964 53.448 151.465 53.5867 151.935 53.864C152.425 54.1413 152.671 54.696 152.671 55.528C152.671 56.3387 152.425 57.1067 151.935 57.832C151.465 58.536 150.836 59.1653 150.047 59.72C149.279 60.2747 148.415 60.7333 147.455 61.096C146.516 61.4373 145.577 61.6507 144.639 61.736C144.617 61.864 144.596 61.992 144.575 62.12C144.553 62.248 144.543 62.4187 144.543 62.632C144.543 62.8027 144.564 63.0373 144.607 63.336C144.671 63.6133 144.777 63.9013 144.927 64.2C145.097 64.4773 145.353 64.712 145.695 64.904C146.036 65.096 146.484 65.192 147.039 65.192C147.935 65.192 148.831 64.936 149.727 64.424C150.644 63.912 151.497 63.24 152.287 62.408C153.076 61.5547 153.737 60.616 154.271 59.592L154.815 60.04C154.239 61.32 153.503 62.44 152.607 63.4C151.711 64.3387 150.719 65.0747 149.631 65.608C148.564 66.1413 147.465 66.408 146.335 66.408ZM144.927 60.744C145.481 60.6373 146.111 60.424 146.815 60.104C147.519 59.7627 148.191 59.3467 148.831 58.856C149.471 58.344 149.993 57.7893 150.399 57.192C150.825 56.5947 151.039 55.9867 151.039 55.368C151.039 55.1333 150.996 54.9627 150.911 54.856C150.825 54.7493 150.676 54.696 150.463 54.696C149.951 54.696 149.417 54.888 148.863 55.272C148.329 55.6347 147.796 56.1147 147.263 56.712C146.751 57.288 146.292 57.9387 145.887 58.664C145.481 59.368 145.161 60.0613 144.927 60.744ZM149.179 73.96C148.582 73.96 148.123 73.7893 147.803 73.448C147.462 73.1067 147.291 72.68 147.291 72.168C147.291 71.336 147.675 70.472 148.443 69.576C149.19 68.68 150.161 67.88 151.355 67.176C151.697 67.0053 152.049 66.8347 152.411 66.664C152.753 66.4933 153.115 66.3227 153.499 66.152C153.883 65.2133 154.235 64.168 154.555 63.016C154.897 61.8427 155.195 60.5627 155.451 59.176C155.217 59.5813 154.982 59.9547 154.747 60.296C154.534 60.6373 154.353 60.9573 154.203 61.256L153.723 60.52C154.107 59.816 154.449 59.08 154.747 58.312C155.046 57.5227 155.323 56.7973 155.579 56.136C155.857 55.4533 156.145 54.8987 156.443 54.472C156.742 54.0453 157.073 53.832 157.435 53.832C157.713 53.832 157.937 53.9387 158.107 54.152C158.278 54.3653 158.363 54.632 158.363 54.952C158.363 55.1867 158.31 55.624 158.203 56.264C158.097 56.904 157.937 57.6933 157.723 58.632C157.531 59.5707 157.286 60.584 156.987 61.672C156.689 62.76 156.347 63.8587 155.963 64.968C156.582 64.6053 157.19 64.232 157.787 63.848C158.385 63.4427 158.982 62.9307 159.579 62.312C160.198 61.672 160.806 60.8293 161.403 59.784L161.915 60.104C161.297 61.448 160.614 62.4933 159.867 63.24C159.121 63.9653 158.374 64.5413 157.627 64.968C156.881 65.3947 156.177 65.8107 155.515 66.216C155.046 67.5173 154.491 68.7547 153.851 69.928C153.211 71.1227 152.497 72.0933 151.707 72.84C150.918 73.5867 150.075 73.96 149.179 73.96ZM148.859 72.584C149.243 72.584 149.819 72.1573 150.587 71.304C151.334 70.472 152.102 69.2347 152.891 67.592C151.398 68.3387 150.278 69.096 149.531 69.864C148.785 70.6533 148.411 71.3467 148.411 71.944C148.411 72.1787 148.454 72.3387 148.539 72.424C148.625 72.5307 148.731 72.584 148.859 72.584ZM157.947 51.304C157.563 51.304 157.211 51.208 156.891 51.016C156.593 50.824 156.443 50.536 156.443 50.152C156.443 49.7893 156.571 49.4693 156.827 49.192C157.105 48.9147 157.435 48.7013 157.819 48.552C158.225 48.3813 158.609 48.296 158.971 48.296C159.313 48.296 159.601 48.3813 159.835 48.552C160.07 48.7227 160.187 48.9893 160.187 49.352C160.187 49.864 159.953 50.3227 159.483 50.728C159.035 51.112 158.523 51.304 157.947 51.304ZM162.384 66.504C161.701 66.504 161.114 66.2693 160.623 65.8C160.111 65.352 159.855 64.6693 159.855 63.752C159.855 62.984 160.026 62.1627 160.367 61.288C160.709 60.4133 161.178 59.5493 161.776 58.696C162.373 57.8427 163.056 57.064 163.824 56.36C164.592 55.656 165.402 55.0907 166.256 54.664C167.13 54.2373 167.994 54.024 168.848 54.024C169.744 54.024 170.49 54.2587 171.088 54.728C171.706 55.176 172.016 55.7733 172.016 56.52C172.016 57.096 171.834 57.5013 171.472 57.736C171.109 57.9707 170.661 58.0453 170.128 57.96C170.17 57.7893 170.202 57.608 170.224 57.416C170.266 57.2027 170.288 57 170.288 56.808C170.288 56.36 170.192 55.9653 170 55.624C169.808 55.2827 169.434 55.112 168.88 55.112C168.282 55.112 167.674 55.3147 167.056 55.72C166.437 56.1253 165.84 56.6587 165.264 57.32C164.688 57.9813 164.176 58.7067 163.728 59.496C163.28 60.2853 162.928 61.064 162.672 61.832C162.416 62.6 162.288 63.2827 162.288 63.88C162.288 64.6053 162.554 64.968 163.088 64.968C163.578 64.968 164.112 64.7333 164.688 64.264C165.285 63.7947 165.882 63.1973 166.48 62.472C167.098 61.7467 167.685 61.0107 168.24 60.264C168.794 59.496 169.274 58.824 169.68 58.248C169.765 58.1413 169.84 58.088 169.904 58.088C170.01 58.1093 170.181 58.1627 170.416 58.248C170.65 58.312 170.864 58.408 171.056 58.536C171.248 58.664 171.344 58.8347 171.344 59.048C171.344 59.2613 171.248 59.5387 171.056 59.88C170.864 60.2 170.65 60.5627 170.416 60.968C170.181 61.3733 169.968 61.7787 169.776 62.184C169.584 62.5893 169.488 62.984 169.488 63.368C169.488 63.6453 169.562 63.9227 169.712 64.2C169.882 64.456 170.149 64.584 170.512 64.584C171.045 64.584 171.77 64.2 172.688 63.432C173.626 62.6427 174.576 61.3627 175.536 59.592L176.048 60.104C175.557 61.256 174.949 62.2693 174.224 63.144C173.52 64.0187 172.773 64.7013 171.984 65.192C171.194 65.704 170.405 65.96 169.616 65.96C168.762 65.96 168.133 65.6933 167.728 65.16C167.322 64.648 167.098 64.0827 167.056 63.464C167.056 63.4 167.056 63.336 167.056 63.272C167.077 63.1867 167.088 63.112 167.088 63.048C166.213 64.136 165.413 64.9787 164.688 65.576C163.962 66.1947 163.194 66.504 162.384 66.504ZM176.924 65.96C176.519 65.96 176.114 65.864 175.709 65.672C175.325 65.48 174.994 65.1707 174.716 64.744C174.439 64.3173 174.3 63.784 174.3 63.144C174.3 62.44 174.471 61.6507 174.812 60.776C175.154 59.9013 175.613 59.0267 176.189 58.152C176.786 57.2773 177.469 56.4773 178.237 55.752C179.005 55.0267 179.815 54.44 180.669 53.992C181.522 53.544 182.375 53.32 183.229 53.32C183.698 53.32 184.061 53.4053 184.317 53.576C184.594 53.7253 184.733 53.9813 184.733 54.344C184.733 54.4507 184.711 54.5573 184.669 54.664C184.647 54.7707 184.583 54.8773 184.477 54.984C184.37 54.8347 184.21 54.7387 183.997 54.696C183.805 54.632 183.581 54.6 183.325 54.6C182.621 54.6 181.949 54.8027 181.309 55.208C180.669 55.592 180.071 56.104 179.516 56.744C178.983 57.384 178.514 58.0773 178.109 58.824C177.725 59.5493 177.426 60.264 177.213 60.968C176.999 61.6507 176.893 62.2373 176.893 62.728C176.893 63.1547 176.978 63.496 177.149 63.752C177.341 64.008 177.607 64.136 177.949 64.136C178.525 64.136 179.218 63.7947 180.029 63.112C180.839 62.408 181.661 61.416 182.493 60.136C183.346 58.8347 184.114 57.2987 184.797 55.528C185.266 54.312 185.757 53.0747 186.269 51.816C186.781 50.536 187.293 49.3093 187.805 48.136C188.317 46.9413 188.818 45.8853 189.309 44.968C189.799 44.0507 190.269 43.3253 190.717 42.792C191.165 42.2373 191.581 41.96 191.965 41.96C192.178 41.96 192.359 42.0453 192.509 42.216C192.679 42.3867 192.765 42.6 192.765 42.856C192.765 43.1973 192.583 43.7733 192.221 44.584C191.879 45.3947 191.431 46.3653 190.877 47.496C190.322 48.6053 189.725 49.8213 189.085 51.144C188.466 52.4453 187.879 53.7787 187.325 55.144C186.791 56.5093 186.343 57.8427 185.981 59.144C185.639 60.4453 185.469 61.6613 185.469 62.792C185.469 63.3253 185.511 63.7093 185.597 63.944C185.682 64.1573 185.863 64.264 186.141 64.264C186.589 64.264 187.101 64.0827 187.677 63.72C188.274 63.336 188.871 62.792 189.469 62.088C190.066 61.3627 190.599 60.5093 191.069 59.528L191.613 59.944C191.165 61.096 190.578 62.12 189.853 63.016C189.149 63.8907 188.381 64.5733 187.549 65.064C186.738 65.576 185.938 65.832 185.149 65.832C184.317 65.832 183.73 65.5547 183.389 65C183.069 64.4667 182.909 63.8587 182.909 63.176C182.909 62.8347 182.941 62.4507 183.005 62.024C183.069 61.576 183.154 61.1173 183.26 60.648C182.599 61.672 181.895 62.5893 181.149 63.4C180.402 64.1893 179.666 64.808 178.941 65.256C178.237 65.7253 177.565 65.96 176.924 65.96ZM192.488 66.024C191.549 66.024 190.898 65.7147 190.536 65.096C190.173 64.4987 189.992 63.816 189.992 63.048C189.992 62.3653 190.098 61.672 190.312 60.968C190.525 60.264 190.813 59.6027 191.176 58.984C191.538 58.3653 191.944 57.864 192.392 57.48C192.84 57.096 193.298 56.904 193.768 56.904C193.896 56.904 194.045 56.936 194.216 57C194.408 57.0427 194.546 57.1067 194.632 57.192C194.397 57.448 194.141 57.8107 193.864 58.28C193.608 58.7493 193.362 59.2613 193.128 59.816C192.914 60.3493 192.733 60.8933 192.584 61.448C192.456 61.9813 192.392 62.472 192.392 62.92C192.392 63.4107 192.477 63.7947 192.648 64.072C192.818 64.3493 193.096 64.488 193.48 64.488C193.906 64.488 194.408 64.264 194.984 63.816C195.581 63.3467 196.146 62.7813 196.68 62.12C196.018 61.544 195.528 60.8827 195.208 60.136C194.909 59.368 194.76 58.504 194.76 57.544C194.76 57.0107 194.877 56.4453 195.112 55.848C195.346 55.2507 195.709 54.7493 196.2 54.344C196.69 53.9387 197.33 53.736 198.12 53.736C199.016 53.736 199.634 53.992 199.976 54.504C200.338 54.9947 200.52 55.592 200.52 56.296C200.52 57.0853 200.306 57.9813 199.88 58.984C199.474 59.9653 198.984 60.904 198.408 61.8C198.706 61.9707 199.037 62.056 199.4 62.056C199.72 62.056 200.104 61.9813 200.552 61.832C201 61.6827 201.426 61.4373 201.832 61.096C202.258 60.7333 202.6 60.264 202.856 59.688L203.368 60.072C202.92 61.1173 202.301 61.8853 201.512 62.376C200.744 62.8453 199.997 63.08 199.272 63.08C198.994 63.08 198.717 63.0587 198.44 63.016C198.162 62.952 197.906 62.8667 197.672 62.76C196.946 63.656 196.125 64.424 195.208 65.064C194.312 65.704 193.405 66.024 192.488 66.024ZM197.416 61.16C197.949 60.4133 198.386 59.6133 198.728 58.76C199.09 57.8853 199.272 57.0853 199.272 56.36C199.272 55.8267 199.186 55.4427 199.016 55.208C198.866 54.952 198.653 54.824 198.376 54.824C197.949 54.824 197.522 55.1227 197.096 55.72C196.669 56.296 196.456 57.032 196.456 57.928C196.456 58.44 196.53 59.016 196.68 59.656C196.85 60.2747 197.096 60.776 197.416 61.16ZM205.804 66.632C204.758 66.632 203.916 66.408 203.276 65.96C202.657 65.5333 202.22 64.9893 201.963 64.328C201.686 63.6667 201.547 62.9947 201.547 62.312C201.547 61.6933 201.633 61.2133 201.803 60.872C201.974 60.5307 202.188 60.2747 202.444 60.104C202.7 59.9333 202.934 59.8053 203.148 59.72C203.382 59.6347 203.542 59.5493 203.628 59.464C204.204 58.8453 204.769 58.1627 205.324 57.416C205.878 56.6693 206.358 55.8587 206.764 54.984V54.632C206.764 53.8 206.902 53.2133 207.18 52.872C207.457 52.5307 207.777 52.36 208.14 52.36C208.374 52.36 208.545 52.424 208.652 52.552C208.758 52.6587 208.812 52.7867 208.812 52.936C208.812 53.0427 208.78 53.192 208.716 53.384C208.673 53.576 208.652 53.832 208.652 54.152C208.652 54.8133 208.801 55.56 209.1 56.392C209.398 57.2027 209.697 58.0667 209.996 58.984C210.294 59.9013 210.444 60.84 210.444 61.8C210.444 62.0773 210.433 62.3333 210.411 62.568C210.39 62.7813 210.348 62.9947 210.284 63.208C210.988 63.0587 211.66 62.7067 212.3 62.152C212.94 61.576 213.558 60.7227 214.156 59.592L214.508 59.88C214.102 61.096 213.505 62.056 212.716 62.76C211.948 63.4427 211.062 63.8587 210.06 64.008C209.718 64.904 209.164 65.5653 208.396 65.992C207.628 66.4187 206.764 66.632 205.804 66.632ZM205.676 65.32C206.038 65.32 206.412 65.2133 206.796 65C207.18 64.808 207.489 64.4667 207.724 63.976C206.828 63.784 206.028 63.4427 205.324 62.952C204.641 62.44 204.107 61.9173 203.724 61.384C203.382 61.448 203.212 61.768 203.212 62.344C203.212 63.0693 203.414 63.752 203.82 64.392C204.246 65.0107 204.865 65.32 205.676 65.32ZM207.948 63.144C207.99 62.9733 208.012 62.7813 208.012 62.568C208.033 62.3547 208.044 62.1627 208.044 61.992C208.022 61.0107 207.894 60.0507 207.66 59.112C207.425 58.152 207.201 57.192 206.988 56.232C206.561 56.9573 206.081 57.704 205.548 58.472C205.036 59.2187 204.556 59.8267 204.108 60.296C204.428 60.9147 204.918 61.4907 205.58 62.024C206.262 62.5573 207.052 62.9307 207.948 63.144Z" fill="white"/>
<path d="M15.6477 14.4205C15.5568 13.5038 15.1667 12.7917 14.4773 12.2841C13.7879 11.7765 12.8523 11.5227 11.6705 11.5227C10.8674 11.5227 10.1894 11.6364 9.63636 11.8636C9.08333 12.0833 8.65909 12.3902 8.36364 12.7841C8.07576 13.178 7.93182 13.625 7.93182 14.125C7.91667 14.5417 8.00379 14.9053 8.19318 15.2159C8.39015 15.5265 8.65909 15.7955 9 16.0227C9.34091 16.2424 9.73485 16.4356 10.1818 16.6023C10.6288 16.7614 11.1061 16.8977 11.6136 17.0114L13.7045 17.5114C14.7197 17.7386 15.6515 18.0417 16.5 18.4205C17.3485 18.7992 18.0833 19.2652 18.7045 19.8182C19.3258 20.3712 19.8068 21.0227 20.1477 21.7727C20.4962 22.5227 20.6742 23.3826 20.6818 24.3523C20.6742 25.7765 20.3106 27.0114 19.5909 28.0568C18.8788 29.0947 17.8485 29.9015 16.5 30.4773C15.1591 31.0455 13.5417 31.3295 11.6477 31.3295C9.76894 31.3295 8.13258 31.0417 6.73864 30.4659C5.35227 29.8902 4.26894 29.0379 3.48864 27.9091C2.71591 26.7727 2.31061 25.3674 2.27273 23.6932H7.03409C7.08712 24.4735 7.31061 25.125 7.70455 25.6477C8.10606 26.1629 8.64015 26.553 9.30682 26.8182C9.98106 27.0758 10.7424 27.2045 11.5909 27.2045C12.4242 27.2045 13.1477 27.0833 13.7614 26.8409C14.3826 26.5985 14.8636 26.2614 15.2045 25.8295C15.5455 25.3977 15.7159 24.9015 15.7159 24.3409C15.7159 23.8182 15.5606 23.3788 15.25 23.0227C14.947 22.6667 14.5 22.3636 13.9091 22.1136C13.3258 21.8636 12.6098 21.6364 11.7614 21.4318L9.22727 20.7955C7.26515 20.3182 5.71591 19.572 4.57955 18.5568C3.44318 17.5417 2.87879 16.1742 2.88636 14.4545C2.87879 13.0455 3.25379 11.8144 4.01136 10.7614C4.77652 9.70833 5.82576 8.88636 7.15909 8.29545C8.49242 7.70454 10.0076 7.40909 11.7045 7.40909C13.4318 7.40909 14.9394 7.70454 16.2273 8.29545C17.5227 8.88636 18.5303 9.70833 19.25 10.7614C19.9697 11.8144 20.3409 13.0341 20.3636 14.4205H15.6477ZM23.1051 11.7841V7.72727H42.2188V11.7841H35.0938V31H30.2301V11.7841H23.1051ZM44.0028 7.72727H49.5142L54.821 17.75H55.0483L60.3551 7.72727H65.8665L57.3778 22.7727V31H52.4915V22.7727L44.0028 7.72727ZM68.554 31V7.72727H73.4744V26.9432H83.4517V31H68.554ZM86.7102 31V7.72727H91.6307V26.9432H101.608V31H86.7102ZM109.472 31H104.199L112.233 7.72727H118.574L126.597 31H121.324L115.494 13.0455H115.312L109.472 31ZM109.142 21.8523H121.597V25.6932H109.142V21.8523ZM129.398 31V7.72727H138.58C140.337 7.72727 141.837 8.04167 143.08 8.67045C144.33 9.29167 145.28 10.1742 145.932 11.3182C146.591 12.4545 146.92 13.7917 146.92 15.3295C146.92 16.875 146.587 18.2045 145.92 19.3182C145.254 20.4242 144.288 21.2727 143.023 21.8636C141.765 22.4545 140.242 22.75 138.455 22.75H132.307V18.7955H137.659C138.598 18.7955 139.379 18.6667 140 18.4091C140.621 18.1515 141.083 17.7652 141.386 17.25C141.697 16.7348 141.852 16.0947 141.852 15.3295C141.852 14.5568 141.697 13.9053 141.386 13.375C141.083 12.8447 140.617 12.4432 139.989 12.1705C139.367 11.8902 138.583 11.75 137.636 11.75H134.318V31H129.398ZM141.966 20.4091L147.75 31H142.318L136.659 20.4091H141.966Z" fill="white"/>
</svg>
