<svg width="215" height="74" viewBox="0 0 215 74" fill="none" xmlns="http://www.w3.org/2000/svg">
<path d="M0.712 67.784C0.818667 67.464 1.13867 66.7067 1.672 65.512C2.22667 64.3387 2.952 62.7813 3.848 60.84C4.744 58.8773 5.78933 56.5947 6.984 53.992C8.2 51.368 9.52267 48.4773 10.952 45.32C11.016 45.1707 11.08 44.9893 11.144 44.776C11.208 44.5627 11.24 44.3707 11.24 44.2C11.24 43.9653 11.176 43.784 11.048 43.656C10.92 43.5067 10.6533 43.432 10.248 43.432C9.352 43.432 8.616 43.72 8.04 44.296C7.48533 44.8507 7.06933 45.544 6.792 46.376C6.51467 47.208 6.376 48.0187 6.376 48.808C6.376 49.0213 6.376 49.2347 6.376 49.448C6.39733 49.6613 6.42933 49.9067 6.472 50.184C6.00267 50.184 5.61867 50.0347 5.32 49.736C5.02133 49.416 4.78667 49.0427 4.616 48.616C4.46667 48.168 4.392 47.752 4.392 47.368C4.392 46.664 4.584 45.992 4.968 45.352C5.37333 44.712 5.88533 44.136 6.504 43.624C7.144 43.112 7.848 42.7067 8.616 42.408C9.384 42.1093 10.1413 41.96 10.888 41.96C11.6347 41.96 12.2747 42.1733 12.808 42.6C13.3413 43.0267 13.7467 43.7947 14.024 44.904C14.3013 45.992 14.44 47.5707 14.44 49.64C14.44 51.0053 14.3867 52.4133 14.28 53.864C14.1947 55.2933 14.0987 56.6693 13.992 57.992C13.8853 59.2933 13.8213 60.4347 13.8 61.416C14.2053 60.136 14.7173 58.7813 15.336 57.352C15.976 55.9227 16.6587 54.504 17.384 53.096C18.1307 51.6667 18.856 50.3227 19.56 49.064C20.2853 47.8053 20.936 46.7173 21.512 45.8C22.088 44.8613 22.5253 44.168 22.824 43.72C23.1227 43.272 23.3787 42.9307 23.592 42.696C23.8267 42.4613 24.136 42.344 24.52 42.344C24.8187 42.344 25.2453 42.4507 25.8 42.664C25.6293 43.0693 25.416 43.6987 25.16 44.552C24.904 45.384 24.6267 46.3653 24.328 47.496C24.008 48.7973 23.6773 50.2373 23.336 51.816C23.016 53.3733 22.7173 54.952 22.44 56.552C22.184 58.152 21.9707 59.6773 21.8 61.128C21.6507 62.5573 21.576 63.7947 21.576 64.84C21.576 65.3733 21.5973 65.7893 21.64 66.088C21.6827 66.3867 21.7467 66.6427 21.832 66.856C21.9387 67.0907 22.0453 67.4 22.152 67.784C21.2987 67.784 20.648 67.6453 20.2 67.368C19.752 67.112 19.4533 66.696 19.304 66.12C19.1547 65.544 19.08 64.776 19.08 63.816C19.08 61.384 19.368 58.8133 19.944 56.104C20.52 53.3947 21.192 50.5893 21.96 47.688C21.3627 48.52 20.7333 49.5333 20.072 50.728C19.432 51.9013 18.792 53.16 18.152 54.504C17.512 55.8267 16.904 57.1493 16.328 58.472C15.752 59.7733 15.24 60.9893 14.792 62.12C14.3653 63.2293 14.0347 64.1573 13.8 64.904C13.6293 64.968 13.512 65.0107 13.448 65.032C13.384 65.0533 13.2987 65.064 13.192 65.064C12.488 65.064 12.04 64.648 11.848 63.816C11.656 62.984 11.56 61.832 11.56 60.36C11.56 59.528 11.5707 58.5893 11.592 57.544C11.6347 56.4987 11.6773 55.432 11.72 54.344C11.784 53.256 11.8267 52.1893 11.848 51.144C11.8907 50.0987 11.912 49.128 11.912 48.232C11.912 47.8907 11.9013 47.5707 11.88 47.272C11.88 46.952 11.88 46.6533 11.88 46.376C10.216 50.2373 8.81867 53.5333 7.688 56.264C6.55733 58.9733 5.59733 61.1813 4.808 62.888C4.01867 64.5733 3.304 65.8107 2.664 66.6C2.04533 67.3893 1.39467 67.784 0.712 67.784ZM27.5815 66.024C26.6428 66.024 25.9922 65.7147 25.6295 65.096C25.2668 64.4987 25.0855 63.816 25.0855 63.048C25.0855 62.3653 25.1922 61.672 25.4055 60.968C25.6188 60.264 25.9068 59.6027 26.2695 58.984C26.6322 58.3653 27.0375 57.864 27.4855 57.48C27.9335 57.096 28.3922 56.904 28.8615 56.904C28.9895 56.904 29.1388 56.936 29.3095 57C29.5015 57.0427 29.6402 57.1067 29.7255 57.192C29.4908 57.448 29.2348 57.8107 28.9575 58.28C28.7015 58.7493 28.4562 59.2613 28.2215 59.816C28.0082 60.3493 27.8268 60.8933 27.6775 61.448C27.5495 61.9813 27.4855 62.472 27.4855 62.92C27.4855 63.4107 27.5708 63.7947 27.7415 64.072C27.9122 64.3493 28.1895 64.488 28.5735 64.488C29.0002 64.488 29.5015 64.264 30.0775 63.816C30.6748 63.3467 31.2402 62.7813 31.7735 62.12C31.1122 61.544 30.6215 60.8827 30.3015 60.136C30.0028 59.368 29.8535 58.504 29.8535 57.544C29.8535 57.0107 29.9708 56.4453 30.2055 55.848C30.4402 55.2507 30.8028 54.7493 31.2935 54.344C31.7842 53.9387 32.4242 53.736 33.2135 53.736C34.1095 53.736 34.7282 53.992 35.0695 54.504C35.4322 54.9947 35.6135 55.592 35.6135 56.296C35.6135 57.0853 35.4002 57.9813 34.9735 58.984C34.5682 59.9653 34.0775 60.904 33.5015 61.8C33.8002 61.9707 34.1308 62.056 34.4935 62.056C34.8135 62.056 35.1975 61.9813 35.6455 61.832C36.0935 61.6827 36.5202 61.4373 36.9255 61.096C37.3522 60.7333 37.6935 60.264 37.9495 59.688L38.4615 60.072C38.0135 61.1173 37.3948 61.8853 36.6055 62.376C35.8375 62.8453 35.0908 63.08 34.3655 63.08C34.0882 63.08 33.8108 63.0587 33.5335 63.016C33.2562 62.952 33.0002 62.8667 32.7655 62.76C32.0402 63.656 31.2188 64.424 30.3015 65.064C29.4055 65.704 28.4988 66.024 27.5815 66.024ZM32.5095 61.16C33.0428 60.4133 33.4802 59.6133 33.8215 58.76C34.1842 57.8853 34.3655 57.0853 34.3655 56.36C34.3655 55.8267 34.2802 55.4427 34.1095 55.208C33.9602 54.952 33.7468 54.824 33.4695 54.824C33.0428 54.824 32.6162 55.1227 32.1895 55.72C31.7628 56.296 31.5495 57.032 31.5495 57.928C31.5495 58.44 31.6242 59.016 31.7735 59.656C31.9442 60.2747 32.1895 60.776 32.5095 61.16ZM39.5533 66.248C38.8066 66.248 38.2839 65.896 37.9853 65.192C37.7079 64.5093 37.5693 63.6133 37.5693 62.504C37.5693 62.3333 37.5799 61.9493 37.6013 61.352C37.6226 60.7333 37.6546 59.8053 37.6973 58.568C37.7399 57.9493 37.8146 57.5333 37.9213 57.32C38.0279 57.0853 38.3373 56.968 38.8493 56.968C39.3186 56.968 39.5959 57.064 39.6813 57.256C39.7879 57.4267 39.8413 57.7893 39.8413 58.344C39.8413 59.0053 39.8093 59.7413 39.7453 60.552C39.6813 61.3413 39.6493 62.0987 39.6493 62.824C39.6493 63.464 39.6813 63.944 39.7453 64.264C39.8306 64.5627 40.0013 64.712 40.2573 64.712C40.6413 64.712 41.0573 64.4987 41.5052 64.072C41.9746 63.6453 42.4439 63.1013 42.9133 62.44C43.3826 61.7573 43.8306 61.032 44.2573 60.264C44.6839 59.4747 45.0573 58.728 45.3773 58.024C45.4199 56.5733 45.5799 55.6027 45.8573 55.112C46.1559 54.6213 46.5293 54.376 46.9773 54.376C47.4679 54.376 47.8093 54.536 48.0013 54.856C48.1933 55.176 48.2893 55.464 48.2893 55.72C48.2893 56.0187 48.1933 56.3067 48.0013 56.584C47.8306 56.8613 47.6599 57.2347 47.4893 57.704C47.3186 58.1733 47.2333 58.8667 47.2333 59.784C47.2333 60.104 47.2546 60.4453 47.2973 60.808C47.3613 61.1707 47.4893 61.48 47.6813 61.736C47.8946 61.9707 48.2146 62.088 48.6413 62.088C49.0679 62.088 49.4839 61.9173 49.8893 61.576C50.2946 61.2133 50.7106 60.5947 51.1373 59.72L51.5213 60.04C51.0306 61.1707 50.4866 61.96 49.8893 62.408C49.3133 62.8347 48.7479 63.048 48.1933 63.048C47.4893 63.048 46.9133 62.7707 46.4653 62.216C46.0173 61.6613 45.6973 60.9253 45.5052 60.008C44.9933 61.0107 44.3959 61.992 43.7133 62.952C43.0519 63.8907 42.3586 64.6693 41.6333 65.288C40.9293 65.928 40.2359 66.248 39.5533 66.248ZM53.991 66.408C52.647 66.408 51.623 66.0453 50.919 65.32C50.215 64.5947 49.863 63.688 49.863 62.6C49.863 61.64 50.0977 60.6373 50.567 59.592C51.0577 58.5253 51.7083 57.5333 52.519 56.616C53.3297 55.6773 54.215 54.92 55.175 54.344C56.1563 53.7467 57.127 53.448 58.087 53.448C58.6203 53.448 59.1217 53.5867 59.591 53.864C60.0817 54.1413 60.327 54.696 60.327 55.528C60.327 56.3387 60.0817 57.1067 59.591 57.832C59.1217 58.536 58.4923 59.1653 57.703 59.72C56.935 60.2747 56.071 60.7333 55.111 61.096C54.1723 61.4373 53.2337 61.6507 52.295 61.736C52.2737 61.864 52.2523 61.992 52.231 62.12C52.2097 62.248 52.199 62.4187 52.199 62.632C52.199 62.8027 52.2203 63.0373 52.263 63.336C52.327 63.6133 52.4337 63.9013 52.583 64.2C52.7537 64.4773 53.0097 64.712 53.351 64.904C53.6923 65.096 54.1403 65.192 54.695 65.192C55.591 65.192 56.487 64.936 57.383 64.424C58.3003 63.912 59.1537 63.24 59.943 62.408C60.7323 61.5547 61.3937 60.616 61.927 59.592L62.471 60.04C61.895 61.32 61.159 62.44 60.263 63.4C59.367 64.3387 58.375 65.0747 57.287 65.608C56.2203 66.1413 55.1217 66.408 53.991 66.408ZM52.583 60.744C53.1377 60.6373 53.767 60.424 54.471 60.104C55.175 59.7627 55.847 59.3467 56.487 58.856C57.127 58.344 57.6497 57.7893 58.055 57.192C58.4817 56.5947 58.695 55.9867 58.695 55.368C58.695 55.1333 58.6523 54.9627 58.567 54.856C58.4817 54.7493 58.3323 54.696 58.119 54.696C57.607 54.696 57.0737 54.888 56.519 55.272C55.9857 55.6347 55.4523 56.1147 54.919 56.712C54.407 57.288 53.9483 57.9387 53.543 58.664C53.1377 59.368 52.8177 60.0613 52.583 60.744ZM63.6515 65.928C62.7555 65.928 62.0835 65.6507 61.6355 65.096C61.1875 64.5627 60.9635 63.9013 60.9635 63.112C60.9635 62.6213 61.0488 62.0027 61.2195 61.256C61.3902 60.5093 61.6248 59.7307 61.9235 58.92C62.2435 58.088 62.6062 57.3093 63.0115 56.584C63.4168 55.8587 63.8435 55.272 64.2915 54.824C64.7608 54.3547 65.2195 54.12 65.6675 54.12C65.9022 54.12 66.1048 54.1947 66.2755 54.344C66.4675 54.4933 66.5635 54.7067 66.5635 54.984C66.5635 55.2613 66.3928 55.6773 66.0515 56.232C65.7315 56.7867 65.3475 57.4373 64.8995 58.184C64.4515 58.9093 64.0568 59.6667 63.7155 60.456C63.3955 61.2453 63.2355 62.0027 63.2355 62.728C63.2355 63.432 63.3635 63.9013 63.6195 64.136C63.8755 64.3707 64.2488 64.488 64.7395 64.488C65.4648 64.488 66.2435 64.1253 67.0755 63.4C67.9288 62.6747 68.8142 61.4053 69.7315 59.592L70.1475 60.04C69.4435 61.9173 68.5048 63.368 67.3315 64.392C66.1795 65.416 64.9528 65.928 63.6515 65.928ZM67.4595 51.4C67.0755 51.4 66.7235 51.304 66.4035 51.112C66.1048 50.92 65.9555 50.632 65.9555 50.248C65.9555 49.736 66.2222 49.3093 66.7555 48.968C67.3102 48.6053 67.8755 48.424 68.4515 48.424C68.8142 48.424 69.1128 48.5093 69.3475 48.68C69.5822 48.8507 69.6995 49.1387 69.6995 49.544C69.6995 49.992 69.4648 50.4187 68.9955 50.824C68.5262 51.208 68.0142 51.4 67.4595 51.4ZM72.5848 66.632C71.5394 66.632 70.6968 66.408 70.0568 65.96C69.4381 65.5333 69.0008 64.9893 68.7447 64.328C68.4674 63.6667 68.3287 62.9947 68.3287 62.312C68.3287 61.6933 68.4141 61.2133 68.5847 60.872C68.7554 60.5307 68.9688 60.2747 69.2248 60.104C69.4808 59.9333 69.7154 59.8053 69.9288 59.72C70.1634 59.6347 70.3234 59.5493 70.4088 59.464C70.9848 58.8453 71.5501 58.1627 72.1048 57.416C72.6594 56.6693 73.1394 55.8587 73.5448 54.984V54.632C73.5448 53.8 73.6834 53.2133 73.9608 52.872C74.2381 52.5307 74.5581 52.36 74.9208 52.36C75.1554 52.36 75.3261 52.424 75.4328 52.552C75.5394 52.6587 75.5928 52.7867 75.5928 52.936C75.5928 53.0427 75.5608 53.192 75.4968 53.384C75.4541 53.576 75.4328 53.832 75.4328 54.152C75.4328 54.8133 75.5821 55.56 75.8808 56.392C76.1794 57.2027 76.4781 58.0667 76.7768 58.984C77.0754 59.9013 77.2248 60.84 77.2248 61.8C77.2248 62.0773 77.2141 62.3333 77.1927 62.568C77.1714 62.7813 77.1288 62.9947 77.0648 63.208C77.7688 63.0587 78.4408 62.7067 79.0808 62.152C79.7208 61.576 80.3394 60.7227 80.9368 59.592L81.2888 59.88C80.8834 61.096 80.2861 62.056 79.4968 62.76C78.7288 63.4427 77.8434 63.8587 76.8408 64.008C76.4994 64.904 75.9448 65.5653 75.1768 65.992C74.4088 66.4187 73.5448 66.632 72.5848 66.632ZM72.4568 65.32C72.8194 65.32 73.1928 65.2133 73.5768 65C73.9608 64.808 74.2701 64.4667 74.5048 63.976C73.6088 63.784 72.8088 63.4427 72.1048 62.952C71.4221 62.44 70.8887 61.9173 70.5048 61.384C70.1634 61.448 69.9928 61.768 69.9928 62.344C69.9928 63.0693 70.1954 63.752 70.6008 64.392C71.0274 65.0107 71.6461 65.32 72.4568 65.32ZM74.7288 63.144C74.7714 62.9733 74.7928 62.7813 74.7928 62.568C74.8141 62.3547 74.8248 62.1627 74.8248 61.992C74.8034 61.0107 74.6754 60.0507 74.4408 59.112C74.2061 58.152 73.9821 57.192 73.7688 56.232C73.3421 56.9573 72.8621 57.704 72.3288 58.472C71.8168 59.2187 71.3368 59.8267 70.8888 60.296C71.2088 60.9147 71.6994 61.4907 72.3608 62.024C73.0434 62.5573 73.8328 62.9307 74.7288 63.144ZM91.8615 67.784C91.2428 67.784 90.6668 67.6133 90.1335 67.272C89.6215 66.952 89.3655 66.536 89.3655 66.024C89.3655 65.768 89.4082 65.48 89.4935 65.16C89.6002 64.84 89.6962 64.5413 89.7815 64.264C90.4428 62.216 91.0615 60.3067 91.6375 58.536C92.2348 56.744 92.8215 55.0267 93.3975 53.384C93.9948 51.72 94.6242 50.056 95.2855 48.392C95.9468 46.728 96.6828 44.9893 97.4935 43.176C96.6828 43.3253 95.9788 43.5387 95.3815 43.816C94.8055 44.0933 94.3255 44.3387 93.9415 44.552C93.5788 44.7653 93.3228 44.872 93.1735 44.872C93.0668 44.872 92.9175 44.808 92.7255 44.68C92.5335 44.5307 92.3628 44.3707 92.2135 44.2C92.0855 44.0293 92.0215 43.88 92.0215 43.752C92.5975 43.496 93.2802 43.2293 94.0695 42.952C94.8588 42.6747 95.7122 42.44 96.6295 42.248C97.5468 42.056 98.4642 41.96 99.3815 41.96C100.363 41.96 101.366 42.0987 102.39 42.376C103.414 42.632 104.352 43.0267 105.206 43.56C106.059 44.072 106.752 44.712 107.286 45.48C107.819 46.248 108.086 47.1547 108.086 48.2C108.086 49.3307 107.83 50.3013 107.318 51.112C106.806 51.9013 106.134 52.5733 105.302 53.128C104.47 53.6827 103.574 54.1307 102.614 54.472C101.654 54.8133 100.694 55.0693 99.7335 55.24C98.7735 55.4107 97.9095 55.528 97.1415 55.592C96.3948 55.656 95.8402 55.688 95.4775 55.688H95.2535C94.6348 57.8213 94.0375 59.944 93.4615 62.056C92.8855 64.168 92.3522 66.0773 91.8615 67.784ZM95.4775 54.856C96.6722 54.7707 97.8668 54.568 99.0615 54.248C100.256 53.928 101.344 53.48 102.326 52.904C103.307 52.328 104.096 51.6027 104.694 50.728C105.291 49.8533 105.59 48.84 105.59 47.688C105.59 46.5787 105.312 45.6827 104.758 45C104.203 44.3173 103.478 43.8053 102.582 43.464C101.707 43.1227 100.768 42.9413 99.7655 42.92C98.9975 44.4347 98.2508 46.2373 97.5255 48.328C96.8215 50.4187 96.1388 52.5947 95.4775 54.856ZM108.501 65.96C107.52 65.96 106.827 65.6293 106.421 64.968C106.037 64.3067 105.845 63.5173 105.845 62.6C105.845 61.5547 106.037 60.328 106.421 58.92C106.805 57.512 107.307 56.04 107.925 54.504C108.565 52.9467 109.259 51.432 110.005 49.96C110.773 48.4667 111.531 47.1227 112.277 45.928C113.045 44.712 113.749 43.752 114.389 43.048C115.051 42.3227 115.573 41.96 115.957 41.96C116.213 41.96 116.427 42.0987 116.597 42.376C116.789 42.6533 116.939 42.9947 117.045 43.4C117.152 43.784 117.205 44.136 117.205 44.456C117.205 45.032 117.056 45.7893 116.757 46.728C116.48 47.6453 116.075 48.6693 115.541 49.8C115.029 50.9093 114.411 52.0507 113.685 53.224C112.981 54.376 112.203 55.4853 111.349 56.552C110.496 57.5973 109.579 58.504 108.597 59.272C108.512 59.8053 108.427 60.3387 108.341 60.872C108.277 61.4053 108.245 61.896 108.245 62.344C108.245 63.1333 108.363 63.72 108.597 64.104C108.853 64.4667 109.195 64.648 109.621 64.648C110.176 64.648 110.731 64.392 111.285 63.88C111.861 63.368 112.405 62.728 112.917 61.96C113.429 61.1707 113.877 60.36 114.261 59.528L114.933 59.912C114.037 61.768 113.045 63.24 111.957 64.328C110.869 65.416 109.717 65.96 108.501 65.96ZM109.077 57.576C109.824 56.808 110.528 55.9547 111.189 55.016C111.851 54.0773 112.459 53.1173 113.013 52.136C113.589 51.1333 114.091 50.1733 114.517 49.256C114.944 48.3173 115.275 47.4853 115.509 46.76C115.744 46.0133 115.872 45.4267 115.893 45C115.893 44.9147 115.883 44.8613 115.861 44.84C115.84 44.7973 115.829 44.776 115.829 44.776C115.659 44.776 115.371 45.032 114.965 45.544C114.581 46.0347 114.123 46.7067 113.589 47.56C113.077 48.4133 112.544 49.3947 111.989 50.504C111.435 51.6133 110.901 52.776 110.389 53.992C109.877 55.208 109.44 56.4027 109.077 57.576ZM115.227 66.504C114.545 66.504 113.958 66.2693 113.467 65.8C112.955 65.352 112.699 64.6693 112.699 63.752C112.699 62.984 112.87 62.1627 113.211 61.288C113.553 60.4133 114.022 59.5493 114.619 58.696C115.217 57.8427 115.899 57.064 116.667 56.36C117.435 55.656 118.246 55.0907 119.099 54.664C119.974 54.2373 120.838 54.024 121.691 54.024C122.587 54.024 123.334 54.2587 123.931 54.728C124.55 55.176 124.859 55.7733 124.859 56.52C124.859 57.096 124.678 57.5013 124.315 57.736C123.953 57.9707 123.505 58.0453 122.971 57.96C123.014 57.7893 123.046 57.608 123.067 57.416C123.11 57.2027 123.131 57 123.131 56.808C123.131 56.36 123.035 55.9653 122.843 55.624C122.651 55.2827 122.278 55.112 121.723 55.112C121.126 55.112 120.518 55.3147 119.899 55.72C119.281 56.1253 118.683 56.6587 118.107 57.32C117.531 57.9813 117.019 58.7067 116.571 59.496C116.123 60.2853 115.771 61.064 115.515 61.832C115.259 62.6 115.131 63.2827 115.131 63.88C115.131 64.6053 115.398 64.968 115.931 64.968C116.422 64.968 116.955 64.7333 117.531 64.264C118.129 63.7947 118.726 63.1973 119.323 62.472C119.942 61.7467 120.529 61.0107 121.083 60.264C121.638 59.496 122.118 58.824 122.523 58.248C122.609 58.1413 122.683 58.088 122.747 58.088C122.854 58.1093 123.025 58.1627 123.259 58.248C123.494 58.312 123.707 58.408 123.899 58.536C124.091 58.664 124.187 58.8347 124.187 59.048C124.187 59.2613 124.091 59.5387 123.899 59.88C123.707 60.2 123.494 60.5627 123.259 60.968C123.025 61.3733 122.811 61.7787 122.619 62.184C122.427 62.5893 122.331 62.984 122.331 63.368C122.331 63.6453 122.406 63.9227 122.555 64.2C122.726 64.456 122.993 64.584 123.355 64.584C123.889 64.584 124.614 64.2 125.531 63.432C126.47 62.6427 127.419 61.3627 128.379 59.592L128.891 60.104C128.401 61.256 127.793 62.2693 127.067 63.144C126.363 64.0187 125.617 64.7013 124.827 65.192C124.038 65.704 123.249 65.96 122.459 65.96C121.606 65.96 120.977 65.6933 120.571 65.16C120.166 64.648 119.942 64.0827 119.899 63.464C119.899 63.4 119.899 63.336 119.899 63.272C119.921 63.1867 119.931 63.112 119.931 63.048C119.057 64.136 118.257 64.9787 117.531 65.576C116.806 66.1947 116.038 66.504 115.227 66.504ZM138.28 65.64C137.491 65.64 136.883 65.4373 136.456 65.032C136.051 64.6267 135.848 64.1147 135.848 63.496C135.848 63.048 135.923 62.5893 136.072 62.12C136.222 61.6293 136.371 61.1387 136.52 60.648C136.67 60.136 136.744 59.6453 136.744 59.176C136.744 58.664 136.627 58.312 136.392 58.12C136.158 57.928 135.88 57.832 135.56 57.832C134.92 57.832 134.259 58.0987 133.576 58.632C132.915 59.1653 132.264 59.8373 131.624 60.648C130.984 61.4373 130.387 62.2693 129.832 63.144C129.278 64.0187 128.798 64.7973 128.392 65.48C128.008 65.48 127.646 65.416 127.304 65.288C126.963 65.16 126.675 64.936 126.44 64.616C126.462 64.5093 126.59 64.1893 126.824 63.656C127.038 63.1013 127.283 62.44 127.56 61.672C127.838 60.8827 128.083 60.072 128.296 59.24C128.531 58.408 128.648 57.64 128.648 56.936C128.798 56.7867 129.022 56.6267 129.32 56.456C129.619 56.2853 129.928 56.2 130.248 56.2C130.931 56.2 131.272 56.5093 131.272 57.128C131.272 57.4053 131.208 57.8533 131.08 58.472C130.952 59.0693 130.782 59.7307 130.568 60.456C131.123 59.6667 131.742 58.9093 132.424 58.184C133.107 57.4373 133.822 56.8293 134.568 56.36C135.315 55.8907 136.072 55.656 136.84 55.656C137.715 55.656 138.355 55.9653 138.76 56.584C139.187 57.1813 139.4 57.8533 139.4 58.6C139.4 59.24 139.294 59.848 139.08 60.424C138.867 60.9787 138.654 61.512 138.44 62.024C138.248 62.5147 138.152 63.0053 138.152 63.496C138.152 63.8587 138.227 64.1253 138.376 64.296C138.547 64.4453 138.75 64.52 138.984 64.52C139.496 64.52 140.019 64.2747 140.552 63.784C141.107 63.272 141.63 62.6427 142.12 61.896C142.632 61.128 143.08 60.36 143.464 59.592L143.944 60.008C143.496 61.0533 142.995 62.0027 142.44 62.856C141.886 63.7093 141.267 64.392 140.584 64.904C139.902 65.3947 139.134 65.64 138.28 65.64ZM146.335 66.408C144.991 66.408 143.967 66.0453 143.263 65.32C142.559 64.5947 142.207 63.688 142.207 62.6C142.207 61.64 142.441 60.6373 142.911 59.592C143.401 58.5253 144.052 57.5333 144.863 56.616C145.673 55.6773 146.559 54.92 147.519 54.344C148.5 53.7467 149.471 53.448 150.431 53.448C150.964 53.448 151.465 53.5867 151.935 53.864C152.425 54.1413 152.671 54.696 152.671 55.528C152.671 56.3387 152.425 57.1067 151.935 57.832C151.465 58.536 150.836 59.1653 150.047 59.72C149.279 60.2747 148.415 60.7333 147.455 61.096C146.516 61.4373 145.577 61.6507 144.639 61.736C144.617 61.864 144.596 61.992 144.575 62.12C144.553 62.248 144.543 62.4187 144.543 62.632C144.543 62.8027 144.564 63.0373 144.607 63.336C144.671 63.6133 144.777 63.9013 144.927 64.2C145.097 64.4773 145.353 64.712 145.695 64.904C146.036 65.096 146.484 65.192 147.039 65.192C147.935 65.192 148.831 64.936 149.727 64.424C150.644 63.912 151.497 63.24 152.287 62.408C153.076 61.5547 153.737 60.616 154.271 59.592L154.815 60.04C154.239 61.32 153.503 62.44 152.607 63.4C151.711 64.3387 150.719 65.0747 149.631 65.608C148.564 66.1413 147.465 66.408 146.335 66.408ZM144.927 60.744C145.481 60.6373 146.111 60.424 146.815 60.104C147.519 59.7627 148.191 59.3467 148.831 58.856C149.471 58.344 149.993 57.7893 150.399 57.192C150.825 56.5947 151.039 55.9867 151.039 55.368C151.039 55.1333 150.996 54.9627 150.911 54.856C150.825 54.7493 150.676 54.696 150.463 54.696C149.951 54.696 149.417 54.888 148.863 55.272C148.329 55.6347 147.796 56.1147 147.263 56.712C146.751 57.288 146.292 57.9387 145.887 58.664C145.481 59.368 145.161 60.0613 144.927 60.744ZM149.179 73.96C148.582 73.96 148.123 73.7893 147.803 73.448C147.462 73.1067 147.291 72.68 147.291 72.168C147.291 71.336 147.675 70.472 148.443 69.576C149.19 68.68 150.161 67.88 151.355 67.176C151.697 67.0053 152.049 66.8347 152.411 66.664C152.753 66.4933 153.115 66.3227 153.499 66.152C153.883 65.2133 154.235 64.168 154.555 63.016C154.897 61.8427 155.195 60.5627 155.451 59.176C155.217 59.5813 154.982 59.9547 154.747 60.296C154.534 60.6373 154.353 60.9573 154.203 61.256L153.723 60.52C154.107 59.816 154.449 59.08 154.747 58.312C155.046 57.5227 155.323 56.7973 155.579 56.136C155.857 55.4533 156.145 54.8987 156.443 54.472C156.742 54.0453 157.073 53.832 157.435 53.832C157.713 53.832 157.937 53.9387 158.107 54.152C158.278 54.3653 158.363 54.632 158.363 54.952C158.363 55.1867 158.31 55.624 158.203 56.264C158.097 56.904 157.937 57.6933 157.723 58.632C157.531 59.5707 157.286 60.584 156.987 61.672C156.689 62.76 156.347 63.8587 155.963 64.968C156.582 64.6053 157.19 64.232 157.787 63.848C158.385 63.4427 158.982 62.9307 159.579 62.312C160.198 61.672 160.806 60.8293 161.403 59.784L161.915 60.104C161.297 61.448 160.614 62.4933 159.867 63.24C159.121 63.9653 158.374 64.5413 157.627 64.968C156.881 65.3947 156.177 65.8107 155.515 66.216C155.046 67.5173 154.491 68.7547 153.851 69.928C153.211 71.1227 152.497 72.0933 151.707 72.84C150.918 73.5867 150.075 73.96 149.179 73.96ZM148.859 72.584C149.243 72.584 149.819 72.1573 150.587 71.304C151.334 70.472 152.102 69.2347 152.891 67.592C151.398 68.3387 150.278 69.096 149.531 69.864C148.785 70.6533 148.411 71.3467 148.411 71.944C148.411 72.1787 148.454 72.3387 148.539 72.424C148.625 72.5307 148.731 72.584 148.859 72.584ZM157.947 51.304C157.563 51.304 157.211 51.208 156.891 51.016C156.593 50.824 156.443 50.536 156.443 50.152C156.443 49.7893 156.571 49.4693 156.827 49.192C157.105 48.9147 157.435 48.7013 157.819 48.552C158.225 48.3813 158.609 48.296 158.971 48.296C159.313 48.296 159.601 48.3813 159.835 48.552C160.07 48.7227 160.187 48.9893 160.187 49.352C160.187 49.864 159.953 50.3227 159.483 50.728C159.035 51.112 158.523 51.304 157.947 51.304ZM162.384 66.504C161.701 66.504 161.114 66.2693 160.623 65.8C160.111 65.352 159.855 64.6693 159.855 63.752C159.855 62.984 160.026 62.1627 160.367 61.288C160.709 60.4133 161.178 59.5493 161.776 58.696C162.373 57.8427 163.056 57.064 163.824 56.36C164.592 55.656 165.402 55.0907 166.256 54.664C167.13 54.2373 167.994 54.024 168.848 54.024C169.744 54.024 170.49 54.2587 171.088 54.728C171.706 55.176 172.016 55.7733 172.016 56.52C172.016 57.096 171.834 57.5013 171.472 57.736C171.109 57.9707 170.661 58.0453 170.128 57.96C170.17 57.7893 170.202 57.608 170.224 57.416C170.266 57.2027 170.288 57 170.288 56.808C170.288 56.36 170.192 55.9653 170 55.624C169.808 55.2827 169.434 55.112 168.88 55.112C168.282 55.112 167.674 55.3147 167.056 55.72C166.437 56.1253 165.84 56.6587 165.264 57.32C164.688 57.9813 164.176 58.7067 163.728 59.496C163.28 60.2853 162.928 61.064 162.672 61.832C162.416 62.6 162.288 63.2827 162.288 63.88C162.288 64.6053 162.554 64.968 163.088 64.968C163.578 64.968 164.112 64.7333 164.688 64.264C165.285 63.7947 165.882 63.1973 166.48 62.472C167.098 61.7467 167.685 61.0107 168.24 60.264C168.794 59.496 169.274 58.824 169.68 58.248C169.765 58.1413 169.84 58.088 169.904 58.088C170.01 58.1093 170.181 58.1627 170.416 58.248C170.65 58.312 170.864 58.408 171.056 58.536C171.248 58.664 171.344 58.8347 171.344 59.048C171.344 59.2613 171.248 59.5387 171.056 59.88C170.864 60.2 170.65 60.5627 170.416 60.968C170.181 61.3733 169.968 61.7787 169.776 62.184C169.584 62.5893 169.488 62.984 169.488 63.368C169.488 63.6453 169.562 63.9227 169.712 64.2C169.882 64.456 170.149 64.584 170.512 64.584C171.045 64.584 171.77 64.2 172.688 63.432C173.626 62.6427 174.576 61.3627 175.536 59.592L176.048 60.104C175.557 61.256 174.949 62.2693 174.224 63.144C173.52 64.0187 172.773 64.7013 171.984 65.192C171.194 65.704 170.405 65.96 169.616 65.96C168.762 65.96 168.133 65.6933 167.728 65.16C167.322 64.648 167.098 64.0827 167.056 63.464C167.056 63.4 167.056 63.336 167.056 63.272C167.077 63.1867 167.088 63.112 167.088 63.048C166.213 64.136 165.413 64.9787 164.688 65.576C163.962 66.1947 163.194 66.504 162.384 66.504ZM176.924 65.96C176.519 65.96 176.114 65.864 175.709 65.672C175.325 65.48 174.994 65.1707 174.716 64.744C174.439 64.3173 174.3 63.784 174.3 63.144C174.3 62.44 174.471 61.6507 174.812 60.776C175.154 59.9013 175.613 59.0267 176.189 58.152C176.786 57.2773 177.469 56.4773 178.237 55.752C179.005 55.0267 179.815 54.44 180.669 53.992C181.522 53.544 182.375 53.32 183.229 53.32C183.698 53.32 184.061 53.4053 184.317 53.576C184.594 53.7253 184.733 53.9813 184.733 54.344C184.733 54.4507 184.711 54.5573 184.669 54.664C184.647 54.7707 184.583 54.8773 184.477 54.984C184.37 54.8347 184.21 54.7387 183.997 54.696C183.805 54.632 183.581 54.6 183.325 54.6C182.621 54.6 181.949 54.8027 181.309 55.208C180.669 55.592 180.071 56.104 179.516 56.744C178.983 57.384 178.514 58.0773 178.109 58.824C177.725 59.5493 177.426 60.264 177.213 60.968C176.999 61.6507 176.893 62.2373 176.893 62.728C176.893 63.1547 176.978 63.496 177.149 63.752C177.341 64.008 177.607 64.136 177.949 64.136C178.525 64.136 179.218 63.7947 180.029 63.112C180.839 62.408 181.661 61.416 182.493 60.136C183.346 58.8347 184.114 57.2987 184.797 55.528C185.266 54.312 185.757 53.0747 186.269 51.816C186.781 50.536 187.293 49.3093 187.805 48.136C188.317 46.9413 188.818 45.8853 189.309 44.968C189.799 44.0507 190.269 43.3253 190.717 42.792C191.165 42.2373 191.581 41.96 191.965 41.96C192.178 41.96 192.359 42.0453 192.509 42.216C192.679 42.3867 192.765 42.6 192.765 42.856C192.765 43.1973 192.583 43.7733 192.221 44.584C191.879 45.3947 191.431 46.3653 190.877 47.496C190.322 48.6053 189.725 49.8213 189.085 51.144C188.466 52.4453 187.879 53.7787 187.325 55.144C186.791 56.5093 186.343 57.8427 185.981 59.144C185.639 60.4453 185.469 61.6613 185.469 62.792C185.469 63.3253 185.511 63.7093 185.597 63.944C185.682 64.1573 185.863 64.264 186.141 64.264C186.589 64.264 187.101 64.0827 187.677 63.72C188.274 63.336 188.871 62.792 189.469 62.088C190.066 61.3627 190.599 60.5093 191.069 59.528L191.613 59.944C191.165 61.096 190.578 62.12 189.853 63.016C189.149 63.8907 188.381 64.5733 187.549 65.064C186.738 65.576 185.938 65.832 185.149 65.832C184.317 65.832 183.73 65.5547 183.389 65C183.069 64.4667 182.909 63.8587 182.909 63.176C182.909 62.8347 182.941 62.4507 183.005 62.024C183.069 61.576 183.154 61.1173 183.26 60.648C182.599 61.672 181.895 62.5893 181.149 63.4C180.402 64.1893 179.666 64.808 178.941 65.256C178.237 65.7253 177.565 65.96 176.924 65.96ZM192.488 66.024C191.549 66.024 190.898 65.7147 190.536 65.096C190.173 64.4987 189.992 63.816 189.992 63.048C189.992 62.3653 190.098 61.672 190.312 60.968C190.525 60.264 190.813 59.6027 191.176 58.984C191.538 58.3653 191.944 57.864 192.392 57.48C192.84 57.096 193.298 56.904 193.768 56.904C193.896 56.904 194.045 56.936 194.216 57C194.408 57.0427 194.546 57.1067 194.632 57.192C194.397 57.448 194.141 57.8107 193.864 58.28C193.608 58.7493 193.362 59.2613 193.128 59.816C192.914 60.3493 192.733 60.8933 192.584 61.448C192.456 61.9813 192.392 62.472 192.392 62.92C192.392 63.4107 192.477 63.7947 192.648 64.072C192.818 64.3493 193.096 64.488 193.48 64.488C193.906 64.488 194.408 64.264 194.984 63.816C195.581 63.3467 196.146 62.7813 196.68 62.12C196.018 61.544 195.528 60.8827 195.208 60.136C194.909 59.368 194.76 58.504 194.76 57.544C194.76 57.0107 194.877 56.4453 195.112 55.848C195.346 55.2507 195.709 54.7493 196.2 54.344C196.69 53.9387 197.33 53.736 198.12 53.736C199.016 53.736 199.634 53.992 199.976 54.504C200.338 54.9947 200.52 55.592 200.52 56.296C200.52 57.0853 200.306 57.9813 199.88 58.984C199.474 59.9653 198.984 60.904 198.408 61.8C198.706 61.9707 199.037 62.056 199.4 62.056C199.72 62.056 200.104 61.9813 200.552 61.832C201 61.6827 201.426 61.4373 201.832 61.096C202.258 60.7333 202.6 60.264 202.856 59.688L203.368 60.072C202.92 61.1173 202.301 61.8853 201.512 62.376C200.744 62.8453 199.997 63.08 199.272 63.08C198.994 63.08 198.717 63.0587 198.44 63.016C198.162 62.952 197.906 62.8667 197.672 62.76C196.946 63.656 196.125 64.424 195.208 65.064C194.312 65.704 193.405 66.024 192.488 66.024ZM197.416 61.16C197.949 60.4133 198.386 59.6133 198.728 58.76C199.09 57.8853 199.272 57.0853 199.272 56.36C199.272 55.8267 199.186 55.4427 199.016 55.208C198.866 54.952 198.653 54.824 198.376 54.824C197.949 54.824 197.522 55.1227 197.096 55.72C196.669 56.296 196.456 57.032 196.456 57.928C196.456 58.44 196.53 59.016 196.68 59.656C196.85 60.2747 197.096 60.776 197.416 61.16ZM205.804 66.632C204.758 66.632 203.916 66.408 203.276 65.96C202.657 65.5333 202.22 64.9893 201.963 64.328C201.686 63.6667 201.547 62.9947 201.547 62.312C201.547 61.6933 201.633 61.2133 201.803 60.872C201.974 60.5307 202.188 60.2747 202.444 60.104C202.7 59.9333 202.934 59.8053 203.148 59.72C203.382 59.6347 203.542 59.5493 203.628 59.464C204.204 58.8453 204.769 58.1627 205.324 57.416C205.878 56.6693 206.358 55.8587 206.764 54.984V54.632C206.764 53.8 206.902 53.2133 207.18 52.872C207.457 52.5307 207.777 52.36 208.14 52.36C208.374 52.36 208.545 52.424 208.652 52.552C208.758 52.6587 208.812 52.7867 208.812 52.936C208.812 53.0427 208.78 53.192 208.716 53.384C208.673 53.576 208.652 53.832 208.652 54.152C208.652 54.8133 208.801 55.56 209.1 56.392C209.398 57.2027 209.697 58.0667 209.996 58.984C210.294 59.9013 210.444 60.84 210.444 61.8C210.444 62.0773 210.433 62.3333 210.411 62.568C210.39 62.7813 210.348 62.9947 210.284 63.208C210.988 63.0587 211.66 62.7067 212.3 62.152C212.94 61.576 213.558 60.7227 214.156 59.592L214.508 59.88C214.102 61.096 213.505 62.056 212.716 62.76C211.948 63.4427 211.062 63.8587 210.06 64.008C209.718 64.904 209.164 65.5653 208.396 65.992C207.628 66.4187 206.764 66.632 205.804 66.632ZM205.676 65.32C206.038 65.32 206.412 65.2133 206.796 65C207.18 64.808 207.489 64.4667 207.724 63.976C206.828 63.784 206.028 63.4427 205.324 62.952C204.641 62.44 204.107 61.9173 203.724 61.384C203.382 61.448 203.212 61.768 203.212 62.344C203.212 63.0693 203.414 63.752 203.82 64.392C204.246 65.0107 204.865 65.32 205.676 65.32ZM207.948 63.144C207.99 62.9733 208.012 62.7813 208.012 62.568C208.033 62.3547 208.044 62.1627 208.044 61.992C208.022 61.0107 207.894 60.0507 207.66 59.112C207.425 58.152 207.201 57.192 206.988 56.232C206.561 56.9573 206.081 57.704 205.548 58.472C205.036 59.2187 204.556 59.8267 204.108 60.296C204.428 60.9147 204.918 61.4907 205.58 62.024C206.262 62.5573 207.052 62.9307 207.948 63.144Z" fill="white"/>
<path d="M15.6477 14.4205C15.5568 13.5038 15.1667 12.7917 14.4773 12.2841C13.7879 11.7765 12.8523 11.5227 11.6705 11.5227C10.8674 11.5227 10.1894 11.6364 9.63636 11.8636C9.08333 12.0833 8.65909 12.3902 8.36364 12.7841C8.07576 13.178 7.93182 13.625 7.93182 14.125C7.91667 14.5417 8.00379 14.9053 8.19318 15.2159C8.39015 15.5265 8.65909 15.7955 9 16.0227C9.34091 16.2424 9.73485 16.4356 10.1818 16.6023C10.6288 16.7614 11.1061 16.8977 11.6136 17.0114L13.7045 17.5114C14.7197 17.7386 15.6515 18.0417 16.5 18.4205C17.3485 18.7992 18.0833 19.2652 18.7045 19.8182C19.3258 20.3712 19.8068 21.0227 20.1477 21.7727C20.4962 22.5227 20.6742 23.3826 20.6818 24.3523C20.6742 25.7765 20.3106 27.0114 19.5909 28.0568C18.8788 29.0947 17.8485 29.9015 16.5 30.4773C15.1591 31.0455 13.5417 31.3295 11.6477 31.3295C9.76894 31.3295 8.13258 31.0417 6.73864 30.4659C5.35227 29.8902 4.26894 29.0379 3.48864 27.9091C2.71591 26.7727 2.31061 25.3674 2.27273 23.6932H7.03409C7.08712 24.4735 7.31061 25.125 7.70455 25.6477C8.10606 26.1629 8.64015 26.553 9.30682 26.8182C9.98106 27.0758 10.7424 27.2045 11.5909 27.2045C12.4242 27.2045 13.1477 27.0833 13.7614 26.8409C14.3826 26.5985 14.8636 26.2614 15.2045 25.8295C15.5455 25.3977 15.7159 24.9015 15.7159 24.3409C15.7159 23.8182 15.5606 23.3788 15.25 23.0227C14.947 22.6667 14.5 22.3636 13.9091 22.1136C13.3258 21.8636 12.6098 21.6364 11.7614 21.4318L9.22727 20.7955C7.26515 20.3182 5.71591 19.572 4.57955 18.5568C3.44318 17.5417 2.87879 16.1742 2.88636 14.4545C2.87879 13.0455 3.25379 11.8144 4.01136 10.7614C4.77652 9.70833 5.82576 8.88636 7.15909 8.29545C8.49242 7.70454 10.0076 7.40909 11.7045 7.40909C13.4318 7.40909 14.9394 7.70454 16.2273 8.29545C17.5227 8.88636 18.5303 9.70833 19.25 10.7614C19.9697 11.8144 20.3409 13.0341 20.3636 14.4205H15.6477ZM23.1051 11.7841V7.72727H42.2188V11.7841H35.0938V31H30.2301V11.7841H23.1051ZM44.0028 7.72727H49.5142L54.821 17.75H55.0483L60.3551 7.72727H65.8665L57.3778 22.7727V31H52.4915V22.7727L44.0028 7.72727ZM68.554 31V7.72727H73.4744V26.9432H83.4517V31H68.554ZM86.7102 31V7.72727H91.6307V26.9432H101.608V31H86.7102ZM109.472 31H104.199L112.233 7.72727H118.574L126.597 31H121.324L115.494 13.0455H115.312L109.472 31ZM109.142 21.8523H121.597V25.6932H109.142V21.8523ZM129.398 31V7.72727H138.58C140.337 7.72727 141.837 8.04167 143.08 8.67045C144.33 9.29167 145.28 10.1742 145.932 11.3182C146.591 12.4545 146.92 13.7917 146.92 15.3295C146.92 16.875 146.587 18.2045 145.92 19.3182C145.254 20.4242 144.288 21.2727 143.023 21.8636C141.765 22.4545 140.242 22.75 138.455 22.75H132.307V18.7955H137.659C138.598 18.7955 139.379 18.6667 140 18.4091C140.621 18.1515 141.083 17.7652 141.386 17.25C141.697 16.7348 141.852 16.0947 141.852 15.3295C141.852 14.5568 141.697 13.9053 141.386 13.375C141.083 12.8447 140.617 12.4432 139.989 12.1705C139.367 11.8902 138.583 11.75 137.636 11.75H134.318V31H129.398ZM141.966 20.4091L147.75 31H142.318L136.659 20.4091H141.966Z" fill="white"/>
</svg>
