<svg width="24" height="24" viewBox="0 0 24 24" fill="none" xmlns="http://www.w3.org/2000/svg">
<path d="M21.12 0.47998H2.88001C1.55665 0.47998 0.480011 1.55662 0.480011 2.87998V21.12C0.480011 22.4433 1.55665 23.52 2.88001 23.52H12.96V14.4H10.08V11.52H12.96V9.59998C12.96 6.68878 15.3288 4.31998 18.24 4.31998H19.68V7.19998H18.24C16.9167 7.19998 15.84 8.27662 15.84 9.59998V11.52H19.6162L19.2562 14.4H15.84V23.52H21.12C22.4434 23.52 23.52 22.4433 23.52 21.12V2.87998C23.52 1.55662 22.4434 0.47998 21.12 0.47998ZM22.56 21.12C22.56 21.9139 21.9139 22.56 21.12 22.56H16.8V15.36H20.1039L20.7039 10.56H16.8V9.59998C16.8 8.80606 17.4461 8.15998 18.24 8.15998H20.64V3.35998H18.24C14.7994 3.35998 12 6.15934 12 9.59998V10.56H9.12001V15.36H12V22.56H2.88001C2.08609 22.56 1.44001 21.9139 1.44001 21.12V2.87998C1.44001 2.08606 2.08609 1.43998 2.88001 1.43998H21.12C21.9139 1.43998 22.56 2.08606 22.56 2.87998V21.12Z" fill="#CB0005"/>
</svg>
