<svg width="24" height="24" viewBox="0 0 24 24" fill="none" xmlns="http://www.w3.org/2000/svg">
<path d="M18.7266 0.445312H5.27344C2.52187 0.445312 0.28125 2.68594 0.28125 5.4375V18.5625C0.28125 21.3141 2.52187 23.5547 5.27344 23.5547H18.7266C21.4781 23.5547 23.7188 21.3141 23.7188 18.5625V5.4375C23.7188 2.68594 21.4781 0.445312 18.7266 0.445312ZM22.7812 18.5625C22.7812 20.7984 20.9625 22.6172 18.7266 22.6172H5.27344C3.0375 22.6172 1.21875 20.7984 1.21875 18.5625V5.4375C1.21875 3.20156 3.0375 1.38281 5.27344 1.38281H18.7266C20.9625 1.38281 22.7812 3.20156 22.7812 5.4375V18.5625Z" fill="#CB0005"/>
<path d="M12 6.23442C8.82188 6.23442 6.23438 8.82192 6.23438 12C6.23438 15.1782 8.82188 17.7657 12 17.7657C15.1781 17.7657 17.7656 15.1782 17.7656 12C17.7656 8.82192 15.1781 6.23442 12 6.23442ZM12 16.8282C9.3375 16.8282 7.17188 14.6625 7.17188 12C7.17188 9.33755 9.3375 7.17192 12 7.17192C14.6625 7.17192 16.8281 9.33755 16.8281 12C16.8281 14.6625 14.6625 16.8282 12 16.8282ZM18.8297 3.83911C17.9484 3.83911 17.2313 4.5563 17.2313 5.43755C17.2313 6.3188 17.9484 7.03599 18.8297 7.03599C19.7109 7.03599 20.4281 6.3188 20.4281 5.43755C20.4281 4.5563 19.7109 3.83911 18.8297 3.83911ZM18.8297 6.09849C18.4641 6.09849 18.1688 5.80317 18.1688 5.43755C18.1688 5.07192 18.4641 4.77661 18.8297 4.77661C19.1953 4.77661 19.4906 5.07192 19.4906 5.43755C19.4906 5.80317 19.1953 6.09849 18.8297 6.09849Z" fill="#CB0005"/>
</svg>
