<svg width="23" height="25" viewBox="0 0 23 25" fill="none" xmlns="http://www.w3.org/2000/svg">
<path d="M19.0795 3.91232C18.0947 2.99082 16.9164 2.25825 15.6145 1.758C14.3125 1.25776 12.9133 1 11.4997 1C10.0862 1 8.68698 1.25776 7.38501 1.758C6.08304 2.25825 4.90478 2.99082 3.91999 3.91232C-0.127139 7.7027 0.0933626 13.8015 4.2048 17.5377L11.169 23.8786C11.2551 23.9564 11.3715 24 11.4928 24C11.6142 24 11.7306 23.9564 11.8167 23.8786L18.7993 17.5377C22.9061 13.8015 23.1266 7.7027 19.0795 3.91232V3.91232Z" stroke="#CB0005" stroke-linecap="round" stroke-linejoin="round"/>
<path d="M15.3329 6.85369C15.0818 6.58306 14.7836 6.36836 14.4554 6.22188C14.1272 6.0754 13.7754 6 13.4201 6C13.0648 6 12.713 6.0754 12.3848 6.22188C12.0566 6.36836 11.7584 6.58306 11.5073 6.85369C11.2562 6.58306 10.958 6.36836 10.6298 6.22188C10.3016 6.0754 9.94978 6 9.59449 6C9.2392 6 8.88739 6.0754 8.55918 6.22188C8.23096 6.36836 7.93278 6.58306 7.68168 6.85369C6.62 7.99682 6.92081 10.0354 7.74892 11.3729C8.57704 12.7103 10.6367 14.4212 11.2879 14.928C11.3482 14.9748 11.4206 15 11.4949 15C11.5692 15 11.6417 14.9748 11.7019 14.928C12.3602 14.406 14.4163 12.7218 15.2409 11.3729C16.0655 10.024 16.3875 7.99301 15.3329 6.85369V6.85369Z" stroke="#CB0005" stroke-linecap="round" stroke-linejoin="round"/>
</svg>
