<svg width="15" height="15" viewBox="0 0 15 15" fill="none" xmlns="http://www.w3.org/2000/svg">
<path fill-rule="evenodd" clip-rule="evenodd" d="M12.8141 2.17983C11.4042 0.774901 9.52904 0.000789661 7.5313 0C3.41498 0 0.0648149 3.33415 0.0631676 7.43237C0.0626185 8.74238 0.406521 10.0211 1.06002 11.1483L0.000549316 15L3.95951 13.9664C5.05028 14.5585 6.2784 14.8706 7.52831 14.8711H7.53138C11.6473 14.8711 14.9977 11.5365 14.9994 7.43831C15.0002 5.45225 14.2241 3.58476 12.8141 2.17983ZM7.53138 13.6157H7.52884C6.41505 13.6153 5.32259 13.3175 4.36959 12.7546L4.14291 12.6207L1.79364 13.2341L2.42072 10.9544L2.27311 10.7206C1.65177 9.73701 1.32359 8.60012 1.32407 7.43284C1.32544 4.02656 4.10999 1.25536 7.53384 1.25536C9.19175 1.25599 10.7502 1.89944 11.9222 3.06717C13.0941 4.23489 13.7391 5.78708 13.7385 7.43782C13.7371 10.8443 10.9526 13.6157 7.53138 13.6157ZM10.9361 8.98886C10.7495 8.8959 9.8321 8.44658 9.66105 8.3846C9.49001 8.32263 9.36563 8.29165 9.24121 8.47758C9.11683 8.6635 8.75922 9.08183 8.65033 9.20577C8.54151 9.32973 8.43266 9.34524 8.24605 9.25226C8.05945 9.1593 7.4582 8.9632 6.74545 8.33046C6.19075 7.83804 5.81622 7.22979 5.70737 7.04388C5.59853 6.85795 5.6958 6.75742 5.78921 6.66484C5.87314 6.58162 5.9758 6.44793 6.06911 6.33946C6.1624 6.23101 6.19349 6.15355 6.25569 6.02961C6.3179 5.90565 6.2868 5.79719 6.24015 5.70423C6.19349 5.61127 5.82033 4.69713 5.66481 4.32528C5.51336 3.96313 5.35951 4.01213 5.24497 4.00646C5.13624 4.00107 5.01172 3.99992 4.88734 3.99992C4.76293 3.99992 4.56078 4.04641 4.38973 4.23232C4.21869 4.41826 3.73666 4.86757 3.73666 5.7817C3.73666 6.69582 4.40528 7.57895 4.49859 7.7029C4.59188 7.82686 5.81439 9.70279 7.68627 10.5073C8.13147 10.6986 8.47905 10.8129 8.75004 10.8985C9.19708 11.0398 9.60386 11.0199 9.92539 10.9721C10.2839 10.9187 11.0294 10.5228 11.1849 10.0889C11.3404 9.65511 11.3404 9.28326 11.2938 9.20579C11.2471 9.12832 11.1227 9.08183 10.9361 8.98886Z" fill="white"/>
</svg>
